<?xml version="1.0" encoding="UTF-8"?>
<svg version="1.1" xmlns="http://www.w3.org/2000/svg" width="960" height="960">
<path d="M0 0 C225.06 0 450.12 0 682 0 C673.88282425 93.92731943 673.88282425 93.92731943 670.00074768 137.43747711 C669.29108005 145.39340932 668.58277601 153.34946267 667.87461677 161.30552926 C666.60843579 175.53042492 665.34107624 189.75521536 664.07312899 203.97995368 C662.96736425 216.385217 661.86198646 228.79051471 660.75696945 241.19584465 C660.60683582 242.88128349 660.45670213 244.56672233 660.30656838 246.25216116 C660.08019052 248.79354115 659.853813 251.33492117 659.6274365 253.87630129 C657.53711338 277.34288969 655.44637693 300.80944124 653.35471535 324.27591038 C653.23758466 325.59000681 653.23758466 325.59000681 653.1180877 326.93065064 C652.48451763 334.03868267 651.85093556 341.14671363 651.21735264 348.25474451 C648.73106399 376.14799077 646.24611531 404.04135612 643.76220703 431.93481445 C640.95496398 463.45918055 638.14678294 494.98346288 635.33717573 526.50761837 C635.03815995 529.86264743 634.7391471 533.21767675 634.44013596 536.57270622 C634.32974016 537.81138114 634.32974016 537.81138114 634.21711414 539.07507979 C633.10825126 551.51707115 632.0001173 563.95912729 630.89235306 576.40121651 C629.63725819 590.49806048 628.38116792 604.59481535 627.12374027 618.69145144 C626.4209297 626.57077543 625.71890548 634.45016855 625.01801139 642.32966325 C624.49520875 648.20604525 623.97092166 654.08229418 623.44604914 659.95849168 C623.23376601 662.33771406 623.02196636 664.71697965 622.81069227 667.09629185 C622.52405098 670.32356291 622.23566329 673.55067331 621.94683266 676.77774906 C621.86482595 677.70581264 621.78281924 678.63387623 621.69832748 679.59006295 C621.23494225 684.74344978 620.67286805 689.86963414 620 695 C612.47594322 698.04353328 604.70268145 700.10334292 596.8828125 702.2265625 C595.34973264 702.64592377 593.81675615 703.06566306 592.28387451 703.48574829 C588.9772066 704.39130077 585.66995886 705.29469172 582.36224365 706.19641113 C574.2323747 708.41305654 566.10589442 710.64207818 557.97917557 712.87023926 C556.0760919 713.39197608 554.17297209 713.91358107 552.26981735 714.43505859 C531.7159206 720.06712085 511.18075068 725.76576764 490.64907837 731.47823334 C482.25073157 733.81470809 473.85193288 736.14955832 465.453125 738.484375 C464.51580536 738.74496075 463.57848572 739.00554649 462.61276245 739.27402878 C439.34482507 745.74229619 416.0698317 752.18504988 392.79361725 758.62345886 C389.63740986 759.49656703 386.4812635 760.36989546 383.32513428 761.24328613 C378.39546715 762.60742702 373.46565357 763.97103732 368.5357132 765.33419037 C366.72129289 765.83595072 364.90691524 766.33786533 363.0925827 766.83994293 C360.61344764 767.52593083 358.13414102 768.21129503 355.65478516 768.89648438 C354.93136869 769.09679386 354.20795223 769.29710335 353.46261406 769.50348282 C351.64276156 770.00602613 349.82146555 770.50333498 348 771 C347.25893005 771.20432648 346.51786011 771.40865295 345.7543335 771.61917114 C339.41249719 772.99585025 333.64727704 771.64993029 327.5859375 769.8515625 C326.74646576 769.61245148 325.90699402 769.37334045 325.04208374 769.12698364 C323.16557455 768.59150533 321.29040164 768.05132857 319.41638184 767.50720215 C313.85981129 765.89542871 308.29207594 764.3227445 302.7265625 762.7421875 C301.4426941 762.37655551 300.15884028 762.01087231 298.875 761.6451416 C281.85585383 756.80194559 264.79409534 752.11148889 247.73730469 747.40301514 C241.70209898 745.73699228 235.66740216 744.06913163 229.6328125 742.40087891 C221.32661421 740.10472032 213.02029522 737.80899922 204.71386719 735.51367188 C186.64976306 730.52182962 168.58667841 725.52630082 150.52371979 720.5303154 C144.5672425 718.88283882 138.61069843 717.23560407 132.65408516 715.58861923 C128.90798942 714.55279729 125.16194227 713.51679967 121.415905 712.4807663 C119.72852882 712.01412758 118.04113489 711.54755308 116.3537178 711.08106232 C103.99929422 707.66557696 91.64857964 704.2367888 79.29849243 700.80566406 C77.61527005 700.33805988 75.93204665 699.87045935 74.24882221 699.40286255 C70.16586979 698.26861709 66.08293106 697.13432235 62 696 C56.29800568 633.57040156 50.63362503 571.13760894 45.06958008 508.69555664 C44.97590017 507.64427464 44.97590017 507.64427464 44.88032773 506.57175463 C43.24859456 488.25969745 41.61907748 469.94744328 39.99037393 451.63511643 C39.02572034 440.7891846 38.060552 429.94329866 37.09506798 419.09744072 C37.02512043 418.31167176 36.95517288 417.5259028 36.88310571 416.71632266 C36.59889836 413.52363347 36.31468888 410.33094446 36.03047623 407.13825574 C33.40560241 377.65179934 30.78198517 348.16523126 28.15902363 318.6786047 C25.83545021 292.55770142 23.51081363 266.43689296 21.18530273 240.31616211 C20.58312721 233.55236123 19.98095283 226.78856025 19.37878895 220.02475834 C19.30461806 219.19163461 19.23044718 218.35851088 19.15402869 217.50014098 C17.19315503 195.47446691 15.23310092 173.4487199 13.27330703 151.42294973 C13.0629966 149.05931857 12.85268588 146.69568743 12.64237471 144.33205633 C12.50294331 142.76502308 12.36351251 141.19798978 12.22408233 139.63095643 C11.18598585 127.96404979 10.14747736 116.29717987 9.10877419 104.63032722 C7.93537329 91.45048626 6.76260909 78.27058881 5.59069548 65.09061552 C4.99361718 58.37572788 4.3962363 51.66086749 3.79810524 44.94607353 C3.25191128 38.81424505 2.70652165 32.6823456 2.16179772 26.55038636 C1.96391709 24.32447964 1.76573364 22.09859982 1.56722949 19.87274862 C1.29926401 16.86752306 1.03236756 13.86220449 0.76575947 10.85685825 C0.68708217 9.97740989 0.60840488 9.09796152 0.52734342 8.19186321 C0 2.22830691 0 2.22830691 0 0 Z " fill="#E44D26" transform="translate(139,188)"/>
<path d="M0 0 C140.58 0 281.16 0 426 0 C425.17381527 10.74040152 424.30320343 21.47370998 423.38037109 32.20581055 C423.2121286 34.17019445 423.04542381 36.13471075 422.88037109 38.09936523 C421.56209732 53.78259625 419.80533512 69.35376228 418 85 C310.75 85 203.5 85 93 85 C94.65 101.83 96.3 118.66 98 136 C100 158 100 158 100 172 C202.3 172 304.6 172 410 172 C410 183.24957323 410 183.24957323 409.54443359 188.22241211 C409.44343857 189.34942032 409.34244354 190.47642853 409.23838806 191.6375885 C409.07011253 193.43926735 409.07011253 193.43926735 408.8984375 195.27734375 C408.78162125 196.56777084 408.66480499 197.85819794 408.54444885 199.18772888 C408.22616307 202.70366061 407.90248993 206.2190774 407.57786179 209.73442841 C407.23424951 213.4660452 406.89572693 217.19812334 406.55688477 220.93017578 C406.13344165 225.59099441 405.70956064 230.25177119 405.28352356 234.91235352 C404.32237167 245.42864303 403.37593469 255.94615626 402.44140625 266.46484375 C402.31510782 267.88557003 402.18880067 269.30629554 402.06248474 270.72702026 C401.96910812 271.77728929 401.96910812 271.77728929 401.8738451 272.84877586 C401.78075833 273.89574607 401.78075833 273.89574607 401.68579102 274.96386719 C401.62398746 275.65904261 401.5621839 276.35421803 401.4985075 277.07045937 C399.44369066 300.17662762 397.33567855 323.27696084 395.13412476 346.36968994 C393.20879406 366.5713319 391.39250303 386.78201336 389.61108398 406.99682617 C389.51043137 408.13538559 389.40977875 409.27394501 389.30607605 410.44700623 C389.11912536 412.5629423 388.9330317 414.67895436 388.7480011 416.7950592 C388.24028523 422.54020432 387.65892333 428.27016779 387 434 C386.07477539 434.24121582 385.14955078 434.48243164 384.19628906 434.73095703 C361.76287088 440.55903575 361.76287088 440.55903575 339.51269531 447.04150391 C334.70587086 448.51663046 329.88826649 449.82387116 325 451 C318.92990349 452.46857174 312.97133283 454.17241026 307 456 C299.74867931 458.2193436 292.4964564 460.15408313 285.125 461.9375 C280.36707938 463.12698016 275.68858513 464.56500879 271 466 C263.7525897 468.21814679 256.50470581 470.15305896 249.13671875 471.93359375 C245.19403996 472.91902263 241.31270061 474.07768013 237.42651367 475.26464844 C234.84352026 476.05303197 232.25441823 476.81824351 229.6640625 477.58203125 C226.93637133 478.39118454 224.31532814 479.25774943 221.6484375 480.26171875 C210.56901122 483.95973306 199.7069344 479.27366009 189 476 C187.68105925 475.62020349 186.36093056 475.24447927 185.0390625 474.875 C182.8250462 474.25569474 180.61399644 473.62567277 178.40625 472.984375 C174.50744071 471.85765488 170.5988297 470.76978001 166.6875 469.6875 C159.28797042 467.63811456 151.89315332 465.57226837 144.5 463.5 C137.33548775 461.49217617 130.17004041 459.48799642 123 457.5 C114.74188271 455.21031868 106.49004227 452.89840706 98.23828125 450.5859375 C92.16084895 448.88336816 86.08182186 447.18681573 80 445.5 C78.58593436 445.10678212 77.17187195 444.71355264 75.7578125 444.3203125 C73.15024958 443.59554838 70.54189582 442.87384269 67.93261719 442.15527344 C64.57918429 441.23172123 61.22705718 440.30353152 57.875 439.375 C56.81925781 439.08560547 55.76351562 438.79621094 54.67578125 438.49804688 C53.66644531 438.21767578 52.65710938 437.93730469 51.6171875 437.6484375 C50.72628418 437.40270996 49.83538086 437.15698242 48.91748047 436.90380859 C45.21230798 435.75598026 41.62249732 434.38685465 38 433 C31.10977686 359.9804509 31.10977686 359.9804509 28.81530762 333.42263794 C28.64852412 331.4945007 28.48018221 329.56649753 28.31018066 327.63864136 C28.07813986 324.99907515 27.85245207 322.35904752 27.62890625 319.71875 C27.56363235 318.98552017 27.49835846 318.25229034 27.43110657 317.49684143 C26.94573991 311.60654954 27 305.97499516 27 300 C55.05 300 83.1 300 112 300 C112.67254106 303.36270529 113.18693674 306.3766652 113.46484375 309.75170898 C113.54162354 310.66713974 113.61840332 311.5825705 113.69750977 312.52574158 C113.77670654 313.50595779 113.85590332 314.48617401 113.9375 315.49609375 C114.02249756 316.52122574 114.10749512 317.54635773 114.19506836 318.60255432 C114.37455962 320.77358062 114.5526676 322.94472167 114.72949219 325.1159668 C114.99650694 328.39460915 115.26737682 331.67291361 115.5390625 334.95117188 C116.42044893 345.6300474 117.27832188 356.30895583 118 367 C132.96426044 371.18844414 147.94323379 375.28226717 163 379.125 C176.24856936 382.50733813 189.3970337 386.16931472 202.51171875 390.03515625 C203.47722656 390.31230469 204.44273437 390.58945312 205.4375 390.875 C206.19933594 391.09929687 206.96117187 391.32359375 207.74609375 391.5546875 C213.37514388 392.66683952 218.01439405 391.60322624 223.375 389.875 C230.52830528 387.66513962 237.72741165 385.77601125 245 384 C252.55285872 382.14798959 260.02637038 380.16896376 267.46411133 377.90112305 C274.84190726 375.6844918 282.32067469 373.87410916 289.8046875 372.0546875 C293.74764043 371.09108606 297.61193188 370.13198701 301.45703125 368.82421875 C304 368 304 368 308 368 C307.98599655 367.30432922 307.9719931 366.60865845 307.95756531 365.89190674 C307.86583121 357.62879765 308.43828667 349.52007492 309.20703125 341.296875 C309.33482157 339.88857074 309.46214472 338.48022402 309.58903503 337.07183838 C309.92341184 333.37497846 310.26426197 329.67874369 310.60650635 325.98260498 C310.94292452 322.33643009 311.27285774 318.68966965 311.60351562 315.04296875 C313.3626024 295.69158213 315.18627597 276.34638962 317 257 C219.65 257 122.3 257 22 257 C20.02 234.23 18.04 211.46 16 188 C14.91478331 176.20493991 13.82622316 164.41121607 12.70170593 152.62001801 C12.0391415 145.65617463 11.38633207 138.6914057 10.734375 131.7265625 C10.66180733 130.95153507 10.58923965 130.17650764 10.51447296 129.37799454 C8.59059677 108.80045908 6.80784789 88.21066513 5.04101562 67.61914062 C4.92643346 66.2851358 4.81185013 64.95113108 4.69726562 63.61712646 C4.47395149 61.01484722 4.25128366 58.41251243 4.02929688 55.81011963 C3.43577407 48.89285135 2.81571009 41.97918911 2.16210938 35.06738281 C2.02161809 33.56975764 1.88117579 32.07212788 1.74078369 30.57449341 C1.4750731 27.74161929 1.20282999 24.90948089 0.92669678 22.0776062 C0.80554504 20.78887604 0.68439331 19.50014587 0.55957031 18.17236328 C0.45138977 17.05032501 0.34320923 15.92828674 0.23175049 14.77224731 C-0.07023162 9.85682645 0 4.92468836 0 0 Z " fill="#FEFEFE" transform="translate(267,331)"/>
<path d="M0 0 C91.74 0 183.48 0 278 0 C272.31083166 67.13218646 272.31083166 67.13218646 269.40655518 99.02865601 C268.43770228 109.67878869 267.4762446 120.32959073 266.515625 130.98046875 C266.41429386 132.10370104 266.31296272 133.22693333 266.20856094 134.38420296 C264.5677414 152.58343062 262.95581762 170.78511021 261.359375 188.98828125 C261.24812475 190.2567584 261.1368745 191.52523556 261.02225304 192.83215141 C260.45337964 199.31988925 259.88486963 205.80765888 259.3164978 212.29544067 C255.14691365 259.88689502 250.89299223 307.46993342 246.54811668 355.04576588 C245.97841855 361.28439186 245.40901092 367.52304431 244.83984375 373.76171875 C244.7261784 375.0075215 244.61251305 376.25332424 244.49540329 377.53687859 C242.58101032 398.52919682 240.69312951 419.52381748 238.81640625 440.51953125 C238.68146738 442.02881827 238.54652691 443.53810515 238.41158485 445.04739189 C237.23111485 458.25170719 236.0515108 471.45609972 234.87600708 484.66085815 C231.68990693 520.45086927 228.41765336 556.23128846 225 592 C216.57985058 595.2179767 216.57985058 595.2179767 212.86425781 596.22338867 C212.15332977 596.41787598 211.44240173 596.61236328 210.70993042 596.81274414 C209.96518463 597.01246826 209.22043884 597.21219238 208.453125 597.41796875 C207.65270782 597.63614258 206.85229065 597.85431641 206.02761841 598.07910156 C204.32001334 598.54426715 202.6119631 599.00780119 200.90350342 599.46981812 C196.38925446 600.690768 191.87828329 601.92371003 187.3671875 603.15625 C186.4706546 603.40094528 185.5741217 603.64564056 184.65042114 603.89775085 C177.20722114 605.93334053 169.78781057 608.04371042 162.375 610.1875 C153.15463481 612.84925587 143.90619398 615.37166253 134.625 617.8125 C123.02886592 620.86439512 111.50906913 624.13608669 100 627.5 C87.44809214 631.16854561 74.8763107 634.68579484 62.22607422 638.00292969 C50.87455908 640.99427973 39.59528664 644.22270431 28.32348633 647.50024414 C27.62293625 647.70281326 26.92238617 647.90538239 26.2006073 648.11408997 C24.31748731 648.65874955 22.43531184 649.20667185 20.55322266 649.75488281 C13.7329874 651.61993374 6.85953344 653.28511664 0 655 C0 625.63 0 596.26 0 566 C14.3232449 561.98949143 28.59296785 558.04752397 42.984375 554.33203125 C47.85301998 553.05738047 52.64344794 551.59251661 57.4375 550.0625 C63.43563313 548.2735831 69.50879553 546.76873194 75.5703125 545.2109375 C80.58630121 543.91437645 85.56276071 542.57571467 90.5 541 C97.44822448 538.78248155 104.50897823 537.02568244 111.5703125 535.2109375 C116.58630121 533.91437645 121.56276071 532.57571467 126.5 531 C133.43485068 528.78674978 140.48125064 527.02880502 147.53076172 525.22412109 C153.92691376 523.57578051 160.21566834 521.77389807 166.4765625 519.6640625 C169.09099646 518.97605356 171.30913383 518.87371386 174 519 C173.97655518 517.79698242 173.95311035 516.59396484 173.92895508 515.35449219 C173.93306407 508.97950527 174.55163005 502.67167659 175.13671875 496.328125 C175.2578015 494.98473483 175.3785511 493.6413146 175.49899292 492.29786682 C175.82290413 488.6969479 176.15192799 485.09651328 176.48204422 481.4961586 C176.75860638 478.47262493 177.0320914 475.44881603 177.30559063 472.42500401 C179.11049276 452.47459634 180.97219535 432.52968373 182.8692627 412.58782959 C184.99741712 390.21348357 187.0006145 367.82875541 188.98475647 345.4412384 C190.19707183 331.76503139 191.41881629 318.08966941 192.64259624 304.41448402 C193.04261421 299.94438673 193.44208732 295.47424126 193.84106731 291.00405121 C194.09010008 288.21503478 194.33958053 285.42605853 194.58917809 282.63709259 C194.75964857 280.73089094 194.92961524 278.82464426 195.0995636 276.918396 C195.2036705 275.75632629 195.3077774 274.59425659 195.41503906 273.39697266 C195.50432678 272.39783844 195.5936145 271.39870422 195.68560791 270.36929321 C196.10163948 265.91074478 196.55443065 261.45569348 197 257 C94.7 257 -7.6 257 -113 257 C-114.98 234.23 -116.96 211.46 -119 188 C-119.495 183.545 -119.495 183.545 -120 179 C-120 176.03 -120 173.06 -120 170 C-12.75 170 94.5 170 205 170 C205.33 165.05 205.66 160.1 206 155 C206.43903724 150.22613122 206.89407811 145.45700979 207.375 140.6875 C208.23706449 131.99707403 209.07379063 123.30598532 209.828125 114.60546875 C209.89532745 113.83154282 209.96252991 113.05761688 210.0317688 112.26023865 C210.35794424 108.49244468 210.67994394 104.72433531 210.99755859 100.95581055 C211.11549545 99.58251399 211.23349363 98.20922271 211.3515625 96.8359375 C211.45291504 95.63501465 211.55426758 94.4340918 211.65869141 93.19677734 C212 90 212 90 213 85 C72.42 85 -68.16 85 -213 85 C-213.33 86.32 -213.66 87.64 -214 89 C-214 87.35 -214 85.7 -214 84 C-143.38 84 -72.76 84 0 84 C0 56.28 0 28.56 0 0 Z " fill="#F06529" transform="translate(480,246)"/>
<path d="M0 0 C140.58 0 281.16 0 426 0 C425.17381527 10.74040152 424.30320343 21.47370998 423.38037109 32.20581055 C423.2121286 34.17019445 423.04542381 36.13471075 422.88037109 38.09936523 C421.56209732 53.78259625 419.80533512 69.35376228 418 85 C310.75 85 203.5 85 93 85 C94.65 101.83 96.3 118.66 98 136 C100 158 100 158 100 172 C137.29 172 174.58 172 213 172 C213 200.05 213 228.1 213 257 C149.97 257 86.94 257 22 257 C20.02 234.23 18.04 211.46 16 188 C14.91478331 176.20493991 13.82622316 164.41121607 12.70170593 152.62001801 C12.0391415 145.65617463 11.38633207 138.6914057 10.734375 131.7265625 C10.66180733 130.95153507 10.58923965 130.17650764 10.51447296 129.37799454 C8.59059677 108.80045908 6.80784789 88.21066513 5.04101562 67.61914062 C4.92643346 66.2851358 4.81185013 64.95113108 4.69726562 63.61712646 C4.47395149 61.01484722 4.25128366 58.41251243 4.02929688 55.81011963 C3.43577407 48.89285135 2.81571009 41.97918911 2.16210938 35.06738281 C2.02161809 33.56975764 1.88117579 32.07212788 1.74078369 30.57449341 C1.4750731 27.74161929 1.20282999 24.90948089 0.92669678 22.0776062 C0.80554504 20.78887604 0.68439331 19.50014587 0.55957031 18.17236328 C0.45138977 17.05032501 0.34320923 15.92828674 0.23175049 14.77224731 C-0.07023162 9.85682645 0 4.92468836 0 0 Z " fill="#EBEAEA" transform="translate(267,331)"/>
<path d="M0 0 C28.05 0 56.1 0 85 0 C85.67254106 3.36270529 86.18693674 6.3766652 86.46484375 9.75170898 C86.58001343 11.12485512 86.58001343 11.12485512 86.69750977 12.52574158 C86.77670654 13.50595779 86.85590332 14.48617401 86.9375 15.49609375 C87.02249756 16.52122574 87.10749512 17.54635773 87.19506836 18.60255432 C87.37455962 20.77358062 87.5526676 22.94472167 87.72949219 25.1159668 C87.99650694 28.39460915 88.26737682 31.67291361 88.5390625 34.95117188 C89.42044893 45.6300474 90.27832188 56.30895583 91 67 C105.96426044 71.18844414 120.94323379 75.28226717 136 79.125 C147.36939627 82.02758831 158.66693986 85.11524556 169.93066406 88.40234375 C173.62058609 89.46805035 177.32843397 90.46632946 181.0390625 91.45703125 C182.70804699 91.91916042 184.35708632 92.45236211 186 93 C186 122.37 186 151.74 186 182 C166.56312294 177.42661716 166.56312294 177.42661716 158.5625 175.0625 C156.76708902 174.54110871 154.97151328 174.02028446 153.17578125 173.5 C152.30260254 173.24605469 151.42942383 172.99210938 150.52978516 172.73046875 C146.77740292 171.64697834 143.01475355 170.60204392 139.25 169.5625 C131.99592924 167.55608979 124.74708215 165.53151094 117.5 163.5 C110.33549312 161.49215714 103.17004035 159.4879964 96 157.5 C87.74188271 155.21031868 79.49004227 152.89840706 71.23828125 150.5859375 C65.16084895 148.88336816 59.08182186 147.18681573 53 145.5 C51.58593436 145.10678212 50.17187195 144.71355264 48.7578125 144.3203125 C46.15024958 143.59554838 43.54189582 142.87384269 40.93261719 142.15527344 C37.57918429 141.23172123 34.22705718 140.30353152 30.875 139.375 C29.81925781 139.08560547 28.76351563 138.79621094 27.67578125 138.49804688 C26.16177734 138.07749023 26.16177734 138.07749023 24.6171875 137.6484375 C23.72628418 137.40270996 22.83538086 137.15698242 21.91748047 136.90380859 C18.21230798 135.75598026 14.62249732 134.38685465 11 133 C4.10977686 59.9804509 4.10977686 59.9804509 1.81530762 33.42263794 C1.64852412 31.4945007 1.48018221 29.56649753 1.31018066 27.63864136 C1.07813986 24.99907515 0.85245207 22.35904752 0.62890625 19.71875 C0.56363235 18.98552017 0.49835846 18.25229034 0.43110657 17.49684143 C-0.05426009 11.60654954 0 5.97499516 0 0 Z " fill="#EBEAEA" transform="translate(294,631)"/>
<path d="M0 0 C70.29 0 140.58 0 213 0 C212.17242193 10.75851494 211.30288752 21.51035078 210.38037109 32.26074219 C210.21197168 34.23194909 210.04526643 36.20330157 209.88037109 38.17480469 C208.59689872 53.50959881 206.83515888 68.70700935 205 84 C137.35 84 69.7 84 0 84 C0 56.28 0 28.56 0 0 Z " fill="#FEFEFE" transform="translate(480,331)"/>
<path d="M0 0 C15.51 0 31.02 0 47 0 C58.86021983 14.24589624 58.86021983 14.24589624 62.66259766 24.54150391 C64.44603583 29.15343986 66.86955041 33.12651945 69.5625 37.25 C70.25683487 38.39771265 70.94644554 39.5483122 71.62890625 40.703125 C72.08136719 41.46109375 72.53382813 42.2190625 73 43 C75.92289122 39.49607393 78.34337285 35.92993638 80.64453125 31.9921875 C80.97740646 31.42605743 81.31028168 30.85992737 81.65324402 30.27664185 C82.71004952 28.47824527 83.76164583 26.67687947 84.8125 24.875 C85.85330087 23.09494552 86.89532547 21.3156349 87.93962097 19.53762817 C88.89565258 17.90923292 89.84797884 16.27866387 90.80004883 14.64794922 C93.77765633 9.71049374 96.90447568 4.86439536 100 0 C115.51 0 131.02 0 147 0 C147 42.9 147 85.8 147 130 C132.48 130 117.96 130 103 130 C102.67 109.87 102.34 89.74 102 69 C95.07 79.89 95.07 79.89 88 91 C85.43218124 94.97137561 82.86126576 98.93323216 80.25 102.875 C79.6621875 103.77734375 79.074375 104.6796875 78.46875 105.609375 C77.90671875 106.45757812 77.3446875 107.30578125 76.765625 108.1796875 C76.27868164 108.91944824 75.79173828 109.65920898 75.29003906 110.42138672 C74.86432617 110.9423291 74.43861328 111.46327148 74 112 C73.34 112 72.68 112 72 112 C70.3046523 109.6160138 68.7340708 107.22892972 67.1875 104.75 C66.20097825 103.19632405 65.21397832 101.64295164 64.2265625 100.08984375 C63.44394043 98.85210205 63.44394043 98.85210205 62.64550781 97.58935547 C59.81889789 93.14142894 56.93863309 88.72849697 54.0625 84.3125 C53.51940186 83.4762207 52.97630371 82.63994141 52.41674805 81.77832031 C51.89894775 80.98135742 51.38114746 80.18439453 50.84765625 79.36328125 C50.39398682 78.66501221 49.94031738 77.96674316 49.47290039 77.24731445 C47.66432672 74.48783814 45.83014487 71.7452173 44 69 C43.67 89.13 43.34 109.26 43 130 C28.81 130 14.62 130 0 130 C0 87.1 0 44.2 0 0 Z " fill="#000000" transform="translate(486,0)"/>
<path d="M0 0 C14.52 0 29.04 0 44 0 C44 13.86 44 27.72 44 42 C56.87 42 69.74 42 83 42 C83 28.14 83 14.28 83 0 C97.52 0 112.04 0 127 0 C127 42.9 127 85.8 127 130 C112.48 130 97.96 130 83 130 C83 115.81 83 101.62 83 87 C70.13 87 57.26 87 44 87 C44 101.19 44 115.38 44 130 C29.48 130 14.96 130 0 130 C0 87.1 0 44.2 0 0 Z " fill="#000000" transform="translate(203,0)"/>
<path d="M0 0 C34.32 0 68.64 0 104 0 C104 7.62889298 103.89297981 14.90820332 103.17382812 22.45019531 C103.08604599 23.41755112 102.99826385 24.38490692 102.90782166 25.38157654 C102.62076675 28.53092127 102.3260879 31.67950023 102.03125 34.828125 C101.82899303 37.03053507 101.62721855 39.23298949 101.42590332 41.43548584 C100.89805211 47.1963125 100.36370194 52.95651798 99.82794189 58.71661377 C99.28106605 64.60888801 98.74041358 70.50173299 98.19921875 76.39453125 C97.13886221 87.93025072 96.07163095 99.46532281 95 111 C94.34744736 111.16866577 93.69489471 111.33733154 93.02256775 111.5111084 C90.02376383 112.28713469 87.02555236 113.06542704 84.02734375 113.84375 C83.00104858 114.10897461 81.97475342 114.37419922 80.9173584 114.64746094 C75.09641359 116.16041929 69.31778107 117.75377824 63.5625 119.5 C55.7362313 121.85714081 47.82888252 123.8145909 39.89208984 125.76293945 C32.41593185 127.61140073 25.03277661 129.67714069 17.66015625 131.8984375 C14.3232492 132.90271475 10.98150305 133.87600502 7.625 134.8125 C6.79226563 135.04582031 5.95953125 135.27914062 5.1015625 135.51953125 C3 136 3 136 0 136 C0 91.12 0 46.24 0 0 Z " fill="#F16529" transform="translate(480,588)"/>
<path d="M0 0 C39.6 0 79.2 0 120 0 C120 28.38 120 56.76 120 86 C83.04 86 46.08 86 8 86 C6.54109404 83.08218808 6.54875724 80.27791426 6.24389648 77.03100586 C6.14126495 75.95497604 6.14126495 75.95497604 6.03656006 74.85720825 C5.81066122 72.47678474 5.59069732 70.09585569 5.37109375 67.71484375 C5.21581344 66.05772257 5.06029763 64.40062344 4.90455627 62.74354553 C4.57834828 59.26261972 4.25508124 55.78143621 3.93383789 52.30004883 C3.52359518 47.85679851 3.106056 43.41427075 2.68624783 38.97191525 C2.36322667 35.54478135 2.04420103 32.11728423 1.72633553 28.68966866 C1.57407418 27.05304054 1.4205847 25.41652618 1.2658062 23.7801342 C1.04872201 21.47869611 0.83705904 19.17681797 0.62670898 16.87475586 C0.50537094 15.56840683 0.3840329 14.2620578 0.25901794 12.91612244 C-0.02518195 8.6192711 0 4.30623978 0 0 Z " fill="#E44D26" transform="translate(360,416)"/>
<path d="M0 0 C39.6 0 79.2 0 120 0 C120 14.52 120 29.04 120 44 C107.46 44 94.92 44 82 44 C82 72.38 82 100.76 82 130 C67.48 130 52.96 130 38 130 C38 101.62 38 73.24 38 44 C25.46 44 12.92 44 0 44 C0 29.48 0 14.96 0 0 Z " fill="#000000" transform="translate(348,0)"/>
<path d="M0 0 C14.52 0 29.04 0 44 0 C44 28.38 44 56.76 44 86 C64.46 86 84.92 86 106 86 C106 100.52 106 115.04 106 130 C71.02 130 36.04 130 0 130 C0 87.1 0 44.2 0 0 Z " fill="#000000" transform="translate(653,0)"/>
</svg>
