<?xml version="1.0" encoding="UTF-8"?>
<svg version="1.1" xmlns="http://www.w3.org/2000/svg" width="683" height="597">
<path d="M0 0 C225.39 0 450.78 0 683 0 C683 197.01 683 394.02 683 597 C457.61 597 232.22 597 0 597 C0 399.99 0 202.98 0 0 Z " fill="#D1D5F0" transform="translate(0,0)"/>
<path d="M0 0 C107.58 0 215.16 0 326 0 C326 0.33 326 0.66 326 1 C324.86304688 1.18175781 323.72609375 1.36351562 322.5546875 1.55078125 C314.14974738 2.91243459 305.81086387 4.37608824 297.50390625 6.25390625 C295.52728495 6.67479217 293.5449703 7.07442477 291.55053711 7.40063477 C284.56340833 8.55134603 278.1010528 10.43617593 271.4375 12.8125 C269.99213867 13.3084668 269.99213867 13.3084668 268.51757812 13.81445312 C262.85372827 15.80424798 257.53608906 18.10113717 252.23706055 20.92529297 C248.90607973 22.52553061 245.61211714 23.26419836 242 24 C242 24.66 242 25.32 242 26 C241.47535156 26.17273438 240.95070312 26.34546875 240.41015625 26.5234375 C227.13227814 31.3397061 215.19025578 39.52983716 204 48 C202.16694773 49.2920655 200.33360964 50.5837256 198.5 51.875 C193.54185986 55.47513314 189.04966272 59.44641974 184.56640625 63.6171875 C182.33211316 65.69164532 180.06193223 67.70075284 177.75 69.6875 C171.31383622 75.31260249 165.87232565 81.23903632 160.69921875 88.05859375 C160.13847656 88.69925781 159.57773438 89.33992188 159 90 C158.34 90 157.68 90 157 90 C156.7421875 90.57105469 156.484375 91.14210938 156.21875 91.73046875 C154.88228071 94.21921445 153.32032738 96.15272633 151.5 98.3125 C137.26844365 115.84412739 126.30944922 135.56303629 118.32421875 156.6171875 C117.10777101 159.72469116 115.78829948 162.76177132 114.4375 165.8125 C111.88813728 171.83826642 110.39769141 177.96175836 108.90625 184.30859375 C108.19310086 187.21344692 107.3930574 189.94525185 106.375 192.75 C104.80649412 197.17420953 104.12001477 201.66832195 103.4296875 206.30078125 C103 209 103 209 102.50439453 210.91357422 C102.00452926 212.98126474 101.72165577 214.96764304 101.5 217.08203125 C101.4175 217.84966797 101.335 218.61730469 101.25 219.40820312 C101.1675 220.20162109 101.085 220.99503906 101 221.8125 C100.83442039 223.38162551 100.66776801 224.95063821 100.5 226.51953125 C100.41806396 227.2885376 100.33612793 228.05754395 100.25170898 228.84985352 C100.03964763 230.66132234 99.76340917 232.46511061 99.47265625 234.265625 C98.7711388 239.80819266 98.63102003 245.35714361 98.4375 250.9375 C98.37272461 252.67870117 98.37272461 252.67870117 98.30664062 254.45507812 C98.20115158 257.30328232 98.09903445 260.15156529 98 263 C98.66 263 99.32 263 100 263 C100.02578125 264.05574219 100.0515625 265.11148437 100.078125 266.19921875 C100.46510521 277.46163271 102.06739018 288.17482037 104.40429688 299.18798828 C105.03003738 302.14179122 105.63252994 305.09983665 106.234375 308.05859375 C106.65479743 310.08103167 107.07663976 312.10317502 107.5 314.125 C107.68916992 315.04821045 107.87833984 315.9714209 108.07324219 316.92260742 C109.49304873 323.52280524 111.55313734 329.71272124 114 336 C114.27005859 336.7017334 114.54011719 337.4034668 114.81835938 338.12646484 C116.49567011 342.43750563 118.24742997 346.71913223 120 351 C120.32742187 351.80179687 120.65484375 352.60359375 120.9921875 353.4296875 C126.5619574 366.49153728 133.94162289 378.36282701 142 390 C142.58394531 390.85851562 143.16789063 391.71703125 143.76953125 392.6015625 C154.59295243 408.55991182 154.59295243 408.55991182 167.671875 422.6171875 C169 424 169 424 169 426 C169.99 426.33 170.98 426.66 172 427 C173.62004233 428.72129497 175.03875786 430.54925478 176.5 432.40625 C178.01516837 434.26844491 178.01516837 434.26844491 181 435 C182.38823208 436.65910663 183.77534447 438.31916539 185.15625 439.984375 C189.64187598 444.88815255 195.24111829 448.67857178 200.53515625 452.66015625 C201.13062256 453.11092529 201.72608887 453.56169434 202.33959961 454.02612305 C203.51666694 454.915402 204.69839796 455.79854614 205.88500977 456.67504883 C207.29316318 457.73661897 208.65186933 458.86317508 210 460 C210 460.66 210 461.32 210 462 C211.0662561 462.1551709 211.0662561 462.1551709 212.15405273 462.31347656 C215.36391159 463.08778583 217.68274161 464.32551358 220.53515625 465.984375 C221.59283203 466.59023438 222.65050781 467.19609375 223.74023438 467.8203125 C225.92784609 469.09095352 228.11534892 470.36178201 230.30273438 471.6328125 C237.36069213 475.67567894 244.43063945 479.03418513 252 482 C253.67398122 482.6855397 255.34720151 483.37294142 257.01953125 484.0625 C276.18468415 491.98215669 276.18468415 491.98215669 296.34765625 496.46875 C301.808536 497.26305978 307.18944824 498.43001646 312.58276367 499.59204102 C322.2666921 501.61111036 331.90305279 502.15465719 341.77734375 502.1328125 C342.75111465 502.13376923 343.72488556 502.13472595 344.72816467 502.13571167 C346.764171 502.13638628 348.80017956 502.13458273 350.83618164 502.13037109 C353.95398731 502.12497145 357.07165161 502.13036138 360.18945312 502.13671875 C362.17708365 502.13605864 364.16471409 502.13477886 366.15234375 502.1328125 C367.08151108 502.13483673 368.01067841 502.13686096 368.96800232 502.13894653 C369.83312943 502.13579437 370.69825653 502.13264221 371.58959961 502.12939453 C372.34695908 502.12859894 373.10431854 502.12780334 373.8846283 502.12698364 C376.0412833 501.9975218 377.91973037 501.56456556 380 501 C381.62590165 500.82594831 383.25557544 500.68529805 384.88671875 500.5703125 C386.2953418 500.46009766 386.2953418 500.46009766 387.73242188 500.34765625 C389.68247783 500.2007254 391.63301007 500.05996829 393.58398438 499.92578125 C399.82554699 499.42373327 405.14357471 498.160707 411 496 C417.9700761 494.00122818 424.77363511 492.60219707 432 492 C432 491.34 432 490.68 432 490 C433.25876953 489.61521484 433.25876953 489.61521484 434.54296875 489.22265625 C453.81334942 483.08835501 471.36158756 474.53826942 488.76782227 464.27758789 C490.22146598 463.44559428 491.70029623 462.65571032 493.20336914 461.91674805 C495.24316457 460.87592296 496.40426381 459.63543112 498 458 C499.69012081 456.72548267 501.40081939 455.47804886 503.125 454.25 C521.96320595 440.64600068 539.95308368 424.60093942 554 406 C554.62648438 405.25234375 555.25296875 404.5046875 555.8984375 403.734375 C564.79937035 393.10954606 572.31538561 380.71303669 578.375 368.25 C580.14130974 364.6577811 582.02398299 361.16832996 584 357.6875 C588.81387252 348.9383795 591.94734812 339.47928743 595 330 C595.66 330 596.32 330 597 330 C597.09796875 329.33097656 597.1959375 328.66195313 597.296875 327.97265625 C598.37866709 321.02493982 599.81552003 314.22544404 601.50292969 307.40454102 C611.16797384 267.86615557 608.99973033 224.69926243 599.3046875 185.4921875 C598.28174511 181.33128113 597.49418683 177.2548281 597 173 C596.34 173 595.68 173 595 173 C594.61328125 171.96101562 594.2265625 170.92203125 593.828125 169.8515625 C589.56458393 158.366912 589.56458393 158.366912 585 147 C584.48566406 145.76830078 584.48566406 145.76830078 583.9609375 144.51171875 C577.3813511 129.40552548 568.75151031 114.49798945 558.28515625 101.77734375 C557 100 557 100 557 98 C556.38898437 97.74863281 555.77796875 97.49726562 555.1484375 97.23828125 C552.66434589 95.80654118 551.97062601 94.68311136 550.625 92.1875 C548.69419306 88.91097913 546.7927151 86.85646454 543.734375 84.5390625 C540.46297226 81.63606097 537.9048709 78.06739783 535.17578125 74.6640625 C531.57625119 70.25673844 528.22397481 66.43785491 523 64 C522.43539062 63.41863281 521.87078125 62.83726563 521.2890625 62.23828125 C518.57835799 59.58771183 515.60221856 57.46886314 512.5 55.3125 C507.83606156 52.03094436 503.23086491 48.69689174 498.6875 45.25 C491.59063418 39.91090094 484.62226984 35.15031672 476.61328125 31.2890625 C472.91579528 29.4651905 469.3326011 27.44774265 465.73828125 25.4296875 C462.55845355 23.76946362 459.30710368 22.38825671 456 21 C454.99582031 20.55140625 453.99164063 20.1028125 452.95703125 19.640625 C433.48116535 11.02769548 414.08030442 5.22860857 392.80151367 3.25927734 C391 3 391 3 389 2 C387.46331135 1.77532169 385.92031946 1.59203195 384.375 1.4375 C383.55773437 1.35371094 382.74046875 1.26992187 381.8984375 1.18359375 C381.27195312 1.12300781 380.64546875 1.06242188 380 1 C380 0.67 380 0.34 380 0 C479.99 0 579.98 0 683 0 C683 195.03 683 390.06 683 591 C457.61 591 232.22 591 0 591 C0 395.97 0 200.94 0 0 Z " fill="#F9F9FA" transform="translate(0,6)"/>
<path d="M0 0 C0.70914551 0.00016113 1.41829102 0.00032227 2.14892578 0.00048828 C8.89973445 0.14627751 15.45385065 1.45385065 20.375 6.375 C20.51997985 8.95564129 20.56177545 11.42443884 20.5 14 C20.49097656 14.70640625 20.48195313 15.4128125 20.47265625 16.140625 C20.44907603 17.88556098 20.41320461 19.63032295 20.375 21.375 C21.48488281 21.81005859 21.48488281 21.81005859 22.6171875 22.25390625 C24.9577227 23.20537028 27.23069976 24.20454753 29.5 25.3125 C30.16257812 25.63089844 30.82515625 25.94929688 31.5078125 26.27734375 C33.60602366 27.51081098 34.93288601 28.39812033 36.375 30.375 C37.21240961 35.9577307 37.48631173 42.24960887 34.6875 47.3125 C31.4767476 51.56457751 28.25526964 55.69895507 24.375 59.375 C25.4475 59.41625 26.52 59.4575 27.625 59.5 C32.85843993 60.11679828 37.05367714 62.5282768 41.640625 65 C43.94541215 66.15897868 45.85994763 66.89594241 48.375 67.375 C48.375 68.035 48.375 68.695 48.375 69.375 C49.09945312 69.61863281 49.82390625 69.86226563 50.5703125 70.11328125 C55.66449772 72.4049551 59.35628752 76.57078709 63.375 80.375 C64.02082031 80.95636719 64.66664063 81.53773437 65.33203125 82.13671875 C76.81447403 92.84156947 83.95824643 109.21733228 84.69384766 124.88500977 C84.73463364 126.445265 84.76609087 128.00578708 84.7890625 129.56640625 C84.81811172 130.81247902 84.81811172 130.81247902 84.8477478 132.08372498 C84.90687615 134.70155002 84.95365804 137.31942066 85 139.9375 C85.03824143 141.72723127 85.0772966 143.51694536 85.1171875 145.30664062 C85.21252143 149.66261852 85.29679419 154.01868231 85.375 158.375 C86.14368408 158.35179687 86.91236816 158.32859375 87.7043457 158.3046875 C88.70554443 158.28664062 89.70674316 158.26859375 90.73828125 158.25 C91.73384033 158.22679687 92.72939941 158.20359375 93.75512695 158.1796875 C96.375 158.375 96.375 158.375 98.5625 160.375 C99.73380389 164.69981435 100.4887999 169.19819851 98.36328125 173.35229492 C97.22823497 175.67538248 97.16846553 177.10886106 97.25 179.67578125 C97.26546875 180.48853516 97.2809375 181.30128906 97.296875 182.13867188 C97.34859948 183.82618291 97.4006778 185.51368314 97.453125 187.20117188 C97.55040481 192.33673534 97.3029438 196.57416627 95.375 201.375 C94.385 201.705 93.395 202.035 92.375 202.375 C91.28333725 204.30830603 91.28333725 204.30830603 90.375 206.375 C89.715 207.035 89.055 207.695 88.375 208.375 C87.99444045 210.30413996 87.99444045 210.30413996 87.91796875 212.53125 C87.86044434 213.38001709 87.80291992 214.22878418 87.74365234 215.10327148 C87.68387207 216.01794189 87.6240918 216.9326123 87.5625 217.875 C86.20888071 234.24314379 82.29814775 247.46830675 73.375 261.375 C72.31229094 263.07066845 71.25120083 264.76735222 70.19140625 266.46484375 C67.27764427 271.11769179 64.33551882 275.75178499 61.375 280.375 C59.39716232 273.61320012 63.39885209 266.99550573 66.63134766 261.07324219 C68.50128701 257.80693236 70.40254935 254.56343134 72.36425781 251.35131836 C77.42925779 242.96630522 80.74076602 235.20562666 81.375 225.375 C80.715 225.375 80.055 225.375 79.375 225.375 C79.26929688 226.22835937 79.16359375 227.08171875 79.0546875 227.9609375 C78.32033897 231.64956172 77.09992146 234.60116188 75.5 238 C74.98695313 239.10601562 74.47390625 240.21203125 73.9453125 241.3515625 C72.375 244.375 72.375 244.375 69.375 248.375 C69.375 245.075 69.375 241.775 69.375 238.375 C68.52228516 239.38820313 68.52228516 239.38820313 67.65234375 240.421875 C63.15922161 245.61259374 59.46349955 249.27540023 53.375 252.375 C50.64624462 254.29542596 48.01436975 256.33425019 45.375 258.375 C44.68849365 258.75430664 44.0019873 259.13361328 43.29467773 259.52441406 C41.06215103 261.3109113 41.06215103 261.3109113 40.82910156 264.5612793 C40.8081543 265.84429932 40.78720703 267.12731934 40.765625 268.44921875 C40.74908875 269.1330513 40.73255249 269.81688385 40.71551514 270.5214386 C40.6669968 272.70188336 40.64565809 274.8816307 40.625 277.0625 C40.59684315 278.54235287 40.5669161 280.0221732 40.53515625 281.50195312 C40.46124013 285.12614983 40.41168748 288.75021374 40.375 292.375 C42.00816162 292.59518799 42.00816162 292.59518799 43.67431641 292.81982422 C47.39724005 293.37833645 50.76529076 294.31069398 54.375 295.375 C57.2007704 296.09395779 60.03249191 296.78652188 62.86450195 297.48046875 C99.68014518 306.51596727 99.68014518 306.51596727 107.375 316.375 C110.67626412 322.29450808 111.52641765 327.75060715 109.89453125 334.3046875 C107.28841692 340.68106875 101.84581757 345.17882921 96.95703125 349.8359375 C94.37918995 352.09647316 94.37918995 352.09647316 93.375 354.375 C94.2 354.58125 95.025 354.7875 95.875 355 C109.69223388 360.42819902 119.86597783 374.09317013 127.22021484 386.45849609 C128.47557569 388.54191738 129.77363879 390.59402412 131.08203125 392.64453125 C131.9922533 394.07547898 132.90241082 395.50646776 133.8125 396.9375 C134.45082764 397.93765137 134.45082764 397.93765137 135.10205078 398.95800781 C137.24083216 402.36309318 138.94028728 405.60593913 140.375 409.375 C141.2902822 411.20152342 142.20694439 413.02744176 143.14233398 414.84375 C148.38583443 425.03434185 153.19665236 434.86440407 154.375 446.375 C139.35923234 455.44392899 124.39984335 463.28689874 108.125 469.875 C107.02865234 470.32101562 105.93230469 470.76703125 104.80273438 471.2265625 C103.25295898 471.84144531 103.25295898 471.84144531 101.671875 472.46875 C100.28500488 473.02079102 100.28500488 473.02079102 98.87011719 473.58398438 C96.375 474.375 96.375 474.375 92.375 474.375 C92.375 475.035 92.375 475.695 92.375 476.375 C91.1375 476.643125 89.9 476.91125 88.625 477.1875 C84.86599856 478.02677391 81.11715506 478.90094941 77.375 479.8125 C76.446875 480.03808594 75.51875 480.26367188 74.5625 480.49609375 C72.8233041 480.97565144 71.08759216 481.48040058 69.39379883 482.1015625 C63.29565203 484.3346675 57.52089192 485.05579503 51.0625 485.5 C49.12869851 485.64570613 47.19509274 485.79403959 45.26171875 485.9453125 C44.41826904 486.00477051 43.57481934 486.06422852 42.70581055 486.12548828 C40.43016229 486.30763259 40.43016229 486.30763259 38.49902344 486.8815155 C36.2808112 487.39688333 34.33467468 487.50853399 32.05981445 487.52026367 C30.79117302 487.52983345 30.79117302 487.52983345 29.49690247 487.53959656 C28.58655746 487.54070938 27.67621246 487.5418222 26.73828125 487.54296875 C25.30901558 487.54796135 25.30901558 487.54796135 23.85087585 487.55305481 C21.82759075 487.55811872 19.80429729 487.5604633 17.78100586 487.56030273 C14.74382892 487.56245999 11.70703313 487.5805392 8.66992188 487.59960938 C-6.18220872 487.64369024 -20.65802022 486.94304931 -35.125 483.3125 C-39.44617094 482.25192064 -43.62309352 481.3304581 -48.0625 480.94921875 C-53.03805745 480.45048447 -57.44894348 478.96721425 -62.125 477.25 C-63.41833252 476.78630005 -63.41833252 476.78630005 -64.73779297 476.31323242 C-71.89309371 473.71649775 -78.9406259 470.88157484 -85.94921875 467.9140625 C-88.80412043 466.71870516 -91.65688659 465.62178666 -94.5625 464.5625 C-105.34074348 460.28453738 -119.3727894 453.6272106 -127.625 445.375 C-128.35708189 438.19695984 -127.01851962 431.97244452 -124.8125 425.1875 C-124.55146484 424.33736328 -124.29042969 423.48722656 -124.02148438 422.61132812 C-122.4917388 417.71991944 -120.7206775 413.05042699 -118.625 408.375 C-117.944375 406.7353125 -117.944375 406.7353125 -117.25 405.0625 C-116.71161011 403.83189454 -116.16961645 402.60286253 -115.625 401.375 C-115.30015625 400.611875 -114.9753125 399.84875 -114.640625 399.0625 C-111.87674853 393.00468855 -108.38308575 388.49826402 -103.8046875 383.6796875 C-102.01104001 381.78317851 -100.41295855 379.86752666 -98.8125 377.8125 C-95.25091706 373.57492257 -90.69119048 370.5136277 -86.234375 367.29296875 C-83.62681746 365.47746247 -83.62681746 365.47746247 -81.625 363.375 C-82.37523437 362.90191406 -83.12546875 362.42882812 -83.8984375 361.94140625 C-105.40444074 348.04646965 -105.40444074 348.04646965 -109.625 336.375 C-110.69914716 330.56543578 -111.26283022 325.03493479 -108.06640625 319.84375 C-102.00094589 313.50634893 -94.484525 310.07219672 -86.3125 307.3125 C-85.56049316 307.05355957 -84.80848633 306.79461914 -84.03369141 306.52783203 C-78.60173689 304.67110399 -73.15605284 302.91422266 -67.625 301.375 C-66.53445313 301.05789063 -65.44390625 300.74078125 -64.3203125 300.4140625 C-53.5027996 297.37235168 -41.91693462 294.375 -30.625 294.375 C-30.73980031 291.52009764 -30.86652964 288.6665412 -31 285.8125 C-31.0309375 285.01263672 -31.061875 284.21277344 -31.09375 283.38867188 C-31.33703761 278.42154977 -32.18419555 274.16218898 -33.625 269.375 C-33.8203125 266.72265625 -33.8203125 266.72265625 -33.75 264.4375 C-33.73195313 263.66535156 -33.71390625 262.89320313 -33.6953125 262.09765625 C-33.67210937 261.52917969 -33.64890625 260.96070313 -33.625 260.375 C-34.42550781 260.13716797 -34.42550781 260.13716797 -35.2421875 259.89453125 C-41.37368303 257.97446085 -46.94959514 255.37265643 -52.625 252.375 C-52.625 251.715 -52.625 251.055 -52.625 250.375 C-53.36878906 250.2821875 -54.11257813 250.189375 -54.87890625 250.09375 C-61.917393 248.25152872 -66.60240837 240.35085927 -70.3984375 234.55078125 C-72.33864201 231.1090809 -73.625 228.35755958 -73.625 224.375 C-74.285 224.375 -74.945 224.375 -75.625 224.375 C-75.44324219 224.96925781 -75.26148438 225.56351563 -75.07421875 226.17578125 C-73.66089262 230.83613358 -72.2736996 235.50443854 -70.9375 240.1875 C-70.68613281 241.06019531 -70.43476563 241.93289063 -70.17578125 242.83203125 C-69.61408338 245.42540226 -69.52528894 247.7302829 -69.625 250.375 C-73.0870064 248.06699574 -73.27126102 247.20257628 -74.5 243.375 C-75.82016292 239.48051937 -77.29995222 235.93155927 -79.25 232.3125 C-81.77348121 227.47518063 -82.85867236 222.75073122 -83.625 217.375 C-84.285 217.375 -84.945 217.375 -85.625 217.375 C-84.12926458 231.03342603 -80.31840442 240.42012265 -73.34985352 252.04370117 C-64.22905942 267.31410872 -64.22905942 267.31410872 -63.625 276.375 C-66.79256617 273.62711137 -68.7174239 270.13608054 -70.8125 266.5625 C-71.20469727 265.89814941 -71.59689453 265.23379883 -72.00097656 264.54931641 C-72.81387353 263.16909191 -73.6245656 261.78756657 -74.43310547 260.40478516 C-75.54836037 258.50551657 -76.6800503 256.61716069 -77.81640625 254.73046875 C-83.75577395 244.7620563 -88.40721373 234.72527488 -90.265625 223.203125 C-90.45089447 221.36329413 -90.45089447 221.36329413 -91.625 220.375 C-91.77138531 218.9086003 -91.85248122 217.43559754 -91.90625 215.96289062 C-91.94298828 215.02521851 -91.97972656 214.08754639 -92.01757812 213.12145996 C-92.05302734 212.10169067 -92.08847656 211.08192139 -92.125 210.03125 C-92.16560547 208.99182251 -92.20621094 207.95239502 -92.24804688 206.88146973 C-92.42244866 202.41326249 -92.5856618 197.94466106 -92.75 193.47607422 C-92.8711855 190.22347436 -92.99794524 186.97112499 -93.125 183.71875 C-93.16044922 182.69898071 -93.19589844 181.67921143 -93.23242188 180.62854004 C-93.26916016 179.69086792 -93.30589844 178.7531958 -93.34375 177.78710938 C-93.37404297 176.95739624 -93.40433594 176.12768311 -93.43554688 175.27282715 C-93.42364019 173.36523619 -93.42364019 173.36523619 -94.625 172.375 C-94.75035652 170.77451798 -94.80074787 169.16784072 -94.8125 167.5625 C-94.82667969 166.68980469 -94.84085938 165.81710938 -94.85546875 164.91796875 C-94.61510406 162.26580915 -93.96687309 160.65035001 -92.625 158.375 C-91.635 158.375 -90.645 158.375 -89.625 158.375 C-89.64594727 157.2919458 -89.66689453 156.2088916 -89.68847656 155.09301758 C-89.76174987 151.01340344 -89.80711169 146.93384538 -89.84472656 142.85375977 C-89.86464572 141.09942798 -89.89179134 139.34516084 -89.92675781 137.59106445 C-90.13807737 126.7049997 -89.70010774 117.61130566 -85.625 107.375 C-85.33463867 106.58303223 -85.04427734 105.79106445 -84.74511719 104.97509766 C-78.12439226 87.42540411 -62.44479655 68.16324609 -45.45703125 60.0546875 C-43.10804415 59.18320828 -41.10260261 59.06529967 -38.625 59.375 C-38.91375 58.82972656 -39.2025 58.28445312 -39.5 57.72265625 C-42.1183694 52.40409341 -43.95520527 47.34294797 -42.625 41.375 C-41.62893955 40.37107591 -40.62887342 39.37111152 -39.625 38.375 C-39.05482192 36.33399762 -39.05482192 36.33399762 -38.9375 34.1875 C-38.834375 32.929375 -38.73125 31.67125 -38.625 30.375 C-39.945 29.385 -41.265 28.395 -42.625 27.375 C-42.13 25.89 -42.13 25.89 -41.625 24.375 C-38.18630888 22.97971957 -34.68669325 21.94208977 -31.140625 20.8515625 C-26.19855179 18.77589175 -23.59880945 15.90063481 -20.75 11.4375 C-15.39411238 3.71872078 -9.40145158 -0.01976479 0 0 Z " fill="#DDB2A1" transform="translate(339.625,21.625)"/>
<path d="M0 0 C99.99 0 199.98 0 303 0 C303 195.03 303 390.06 303 591 C77.61 591 -147.78 591 -380 591 C-380 589.68 -380 588.36 -380 587 C-179.03 587 21.94 587 229 587 C228.67 485.03 228.34 383.06 228 278 C227.67 280.31 227.34 282.62 227 285 C226.67 285 226.34 285 226 285 C226.0721875 283.783125 226.144375 282.56625 226.21875 281.3125 C228.02177523 248.48401399 227.23599485 217.56665763 219.3046875 185.4921875 C218.28174511 181.33128113 217.49418683 177.2548281 217 173 C216.34 173 215.68 173 215 173 C214.61328125 171.96101562 214.2265625 170.92203125 213.828125 169.8515625 C209.56458393 158.366912 209.56458393 158.366912 205 147 C204.48566406 145.76830078 204.48566406 145.76830078 203.9609375 144.51171875 C197.3813511 129.40552548 188.75151031 114.49798945 178.28515625 101.77734375 C177 100 177 100 177 98 C176.38898437 97.74863281 175.77796875 97.49726562 175.1484375 97.23828125 C172.66434589 95.80654118 171.97062601 94.68311136 170.625 92.1875 C168.69419306 88.91097913 166.7927151 86.85646454 163.734375 84.5390625 C160.46297226 81.63606097 157.9048709 78.06739783 155.17578125 74.6640625 C151.57625119 70.25673844 148.22397481 66.43785491 143 64 C142.43539062 63.41863281 141.87078125 62.83726563 141.2890625 62.23828125 C138.57835799 59.58771183 135.60221856 57.46886314 132.5 55.3125 C127.83606156 52.03094436 123.23086491 48.69689174 118.6875 45.25 C111.59063418 39.91090094 104.62226984 35.15031672 96.61328125 31.2890625 C92.91579528 29.4651905 89.3326011 27.44774265 85.73828125 25.4296875 C82.55845355 23.76946362 79.30710368 22.38825671 76 21 C74.99582031 20.55140625 73.99164063 20.1028125 72.95703125 19.640625 C53.48116535 11.02769548 34.08030442 5.22860857 12.80151367 3.25927734 C11 3 11 3 9 2 C7.46331135 1.77532169 5.92031946 1.59203195 4.375 1.4375 C3.55773437 1.35371094 2.74046875 1.26992187 1.8984375 1.18359375 C1.27195312 1.12300781 0.64546875 1.06242188 0 1 C0 0.67 0 0.34 0 0 Z " fill="#F0F2F4" transform="translate(380,6)"/>
<path d="M0 0 C2.0839403 0.11443603 4.16716493 0.24195547 6.25 0.375 C7.41015625 0.44460938 8.5703125 0.51421875 9.765625 0.5859375 C12.78576311 0.97257354 14.39675088 1.55545798 17 3 C18.49682971 3.42833753 20.00795393 3.80869228 21.52734375 4.1484375 C22.82986084 4.44609009 22.82986084 4.44609009 24.15869141 4.74975586 C25.07569824 4.95608643 25.99270508 5.16241699 26.9375 5.375 C59.09754519 12.87497977 59.09754519 12.87497977 67 23 C70.30126412 28.91950808 71.15141765 34.37560715 69.51953125 40.9296875 C66.91341692 47.30606875 61.47081757 51.80382921 56.58203125 56.4609375 C54.00418995 58.72147316 54.00418995 58.72147316 53 61 C53.825 61.20625 54.65 61.4125 55.5 61.625 C69.31723388 67.05319902 79.49097783 80.71817013 86.84521484 93.08349609 C88.10057569 95.16691738 89.39863879 97.21902412 90.70703125 99.26953125 C91.6172533 100.70047898 92.52741082 102.13146776 93.4375 103.5625 C94.07582764 104.56265137 94.07582764 104.56265137 94.72705078 105.58300781 C96.86583216 108.98809318 98.56528728 112.23093913 100 116 C100.9152822 117.82652342 101.83194439 119.65244176 102.76733398 121.46875 C108.01083443 131.65934185 112.82165236 141.48940407 114 153 C98.98423234 162.06892899 84.02484335 169.91189874 67.75 176.5 C66.10547852 177.16902344 66.10547852 177.16902344 64.42773438 177.8515625 C63.39455078 178.26148438 62.36136719 178.67140625 61.296875 179.09375 C60.37229492 179.46177734 59.44771484 179.82980469 58.49511719 180.20898438 C56 181 56 181 52 181 C52 181.66 52 182.32 52 183 C50.7625 183.268125 49.525 183.53625 48.25 183.8125 C44.49099856 184.65177391 40.74215506 185.52594941 37 186.4375 C36.071875 186.66308594 35.14375 186.88867188 34.1875 187.12109375 C32.4483041 187.60065144 30.71259216 188.10540058 29.01879883 188.7265625 C22.92065203 190.9596675 17.14589192 191.68079503 10.6875 192.125 C8.75369851 192.27070613 6.82009274 192.41903959 4.88671875 192.5703125 C4.04326904 192.62977051 3.19981934 192.68922852 2.33081055 192.75048828 C0.05516229 192.93263259 0.05516229 192.93263259 -1.87597656 193.5065155 C-4.0941888 194.02188333 -6.04032532 194.13353399 -8.31518555 194.14526367 C-9.1609465 194.15164352 -10.00670746 194.15802338 -10.87809753 194.16459656 C-11.78844254 194.16570938 -12.69878754 194.1668222 -13.63671875 194.16796875 C-14.58956253 194.17129715 -15.54240631 194.17462555 -16.52412415 194.17805481 C-18.54740925 194.18311872 -20.57070271 194.1854633 -22.59399414 194.18530273 C-25.63117108 194.18745999 -28.66796687 194.2055392 -31.70507812 194.22460938 C-46.55720872 194.26869024 -61.03302022 193.56804931 -75.5 189.9375 C-79.82117094 188.87692064 -83.99809352 187.9554581 -88.4375 187.57421875 C-93.41305745 187.07548447 -97.82394348 185.59221425 -102.5 183.875 C-103.36222168 183.5658667 -104.22444336 183.2567334 -105.11279297 182.93823242 C-112.26809371 180.34149775 -119.3156259 177.50657484 -126.32421875 174.5390625 C-129.17912043 173.34370516 -132.03188659 172.24678666 -134.9375 171.1875 C-145.71574348 166.90953738 -159.7477894 160.2522106 -168 152 C-168.73208189 144.82195984 -167.39351962 138.59744452 -165.1875 131.8125 C-164.92646484 130.96236328 -164.66542969 130.11222656 -164.39648438 129.23632812 C-162.8667388 124.34491944 -161.0956775 119.67542699 -159 115 C-158.54625 113.906875 -158.0925 112.81375 -157.625 111.6875 C-157.08661011 110.45689454 -156.54461645 109.22786253 -156 108 C-155.67515625 107.236875 -155.3503125 106.47375 -155.015625 105.6875 C-152.25174853 99.62968855 -148.75808575 95.12326402 -144.1796875 90.3046875 C-142.38604001 88.40817851 -140.78795855 86.49252666 -139.1875 84.4375 C-135.62591706 80.19992257 -131.06619048 77.1386277 -126.609375 73.91796875 C-124.00181746 72.10246247 -124.00181746 72.10246247 -122 70 C-122.75023437 69.52691406 -123.50046875 69.05382812 -124.2734375 68.56640625 C-145.77944074 54.67146965 -145.77944074 54.67146965 -150 43 C-151.07414716 37.19043578 -151.63783022 31.65993479 -148.44140625 26.46875 C-142.37594589 20.13134893 -134.859525 16.69719672 -126.6875 13.9375 C-125.93549316 13.67855957 -125.18348633 13.41961914 -124.40869141 13.15283203 C-118.97706048 11.2962146 -113.53229076 9.53395335 -108 8 C-106.83984375 7.67128906 -105.6796875 7.34257812 -104.484375 7.00390625 C-93.25859808 3.87373827 -82.67863755 1.84506905 -71 2 C-70.92546352 7.55010083 -70.87121601 13.09990586 -70.83520508 18.65039062 C-70.82018207 20.53585897 -70.79975769 22.42129275 -70.77368164 24.30664062 C-70.73701137 27.0274309 -70.72020854 29.74775641 -70.70703125 32.46875 C-70.69154739 33.30241089 -70.67606354 34.13607178 -70.66011047 34.99499512 C-70.65850768 40.65535787 -71.73858834 44.80423066 -74 50 C-72.96101563 50.18175781 -71.92203125 50.36351562 -70.8515625 50.55078125 C-69.44265382 50.80438481 -68.03380273 51.05830848 -66.625 51.3125 C-65.94566406 51.43044922 -65.26632812 51.54839844 -64.56640625 51.66992188 C-60.62121235 52.38890581 -56.89377239 53.32971383 -53.08203125 54.58203125 C-48.00168464 56.14682875 -43.35440642 56.46144593 -38.0625 56.375 C-37.16370117 56.36702393 -36.26490234 56.35904785 -35.33886719 56.35083008 C-23.70111212 56.10931099 -12.07901927 54.71633087 -1.14941406 50.59692383 C1.30869634 49.9142705 3.46076837 49.90090668 6 50 C5.57122559 49.13109131 5.14245117 48.26218262 4.70068359 47.36694336 C-0.13495807 36.92353797 -0.7504806 27.93908985 -0.375 16.5625 C-0.34480346 14.94471219 -0.31744507 13.32686884 -0.29296875 11.70898438 C-0.2278719 7.80457766 -0.12491944 3.90293167 0 0 Z " fill="#794B8C" transform="translate(380,315)"/>
<path d="M0 0 C75.57 0 151.14 0 229 0 C229 72.27 229 144.54 229 219 C228.34 219.33 227.68 219.66 227 220 C226.65219482 218.41916626 226.65219482 218.41916626 226.29736328 216.80639648 C225.43106376 212.87166666 224.56189801 208.93757446 223.69189453 205.00366211 C223.31677118 203.30559081 222.94241047 201.60735084 222.56884766 199.90893555 C222.02970809 197.45836652 221.48776843 195.00843053 220.9453125 192.55859375 C220.698311 191.43160316 220.698311 191.43160316 220.44631958 190.28184509 C219.69026335 186.8788783 218.86999214 183.56127301 217.87841797 180.21508789 C217 177 217 177 217 173 C216.34 173 215.68 173 215 173 C214.61328125 171.96101562 214.2265625 170.92203125 213.828125 169.8515625 C209.56458393 158.366912 209.56458393 158.366912 205 147 C204.48566406 145.76830078 204.48566406 145.76830078 203.9609375 144.51171875 C197.3813511 129.40552548 188.75151031 114.49798945 178.28515625 101.77734375 C177 100 177 100 177 98 C176.38898438 97.74863281 175.77796875 97.49726562 175.1484375 97.23828125 C172.66434589 95.80654118 171.97062601 94.68311136 170.625 92.1875 C168.69419306 88.91097913 166.7927151 86.85646454 163.734375 84.5390625 C160.46297226 81.63606097 157.9048709 78.06739783 155.17578125 74.6640625 C151.57625119 70.25673844 148.22397481 66.43785491 143 64 C142.43539062 63.41863281 141.87078125 62.83726563 141.2890625 62.23828125 C138.57835799 59.58771183 135.60221856 57.46886314 132.5 55.3125 C127.83606156 52.03094436 123.23086491 48.69689174 118.6875 45.25 C111.59063418 39.91090094 104.62226984 35.15031672 96.61328125 31.2890625 C92.91579528 29.4651905 89.3326011 27.44774265 85.73828125 25.4296875 C82.55845355 23.76946362 79.30710368 22.38825671 76 21 C74.49373047 20.32710937 74.49373047 20.32710937 72.95703125 19.640625 C53.48116535 11.02769548 34.08030442 5.22860857 12.80151367 3.25927734 C11 3 11 3 9 2 C7.46331135 1.77532169 5.92031946 1.59203195 4.375 1.4375 C3.55773437 1.35371094 2.74046875 1.26992187 1.8984375 1.18359375 C1.27195312 1.12300781 0.64546875 1.06242188 0 1 C0 0.67 0 0.34 0 0 Z " fill="#FEFEFE" transform="translate(380,6)"/>
<path d="M0 0 C2.0839403 0.11443603 4.16716493 0.24195547 6.25 0.375 C7.41015625 0.44460938 8.5703125 0.51421875 9.765625 0.5859375 C12.78576311 0.97257354 14.39675088 1.55545798 17 3 C18.49682971 3.42833753 20.00795393 3.80869228 21.52734375 4.1484375 C22.82986084 4.44609009 22.82986084 4.44609009 24.15869141 4.74975586 C25.07569824 4.95608643 25.99270508 5.16241699 26.9375 5.375 C59.09754519 12.87497977 59.09754519 12.87497977 67 23 C70.30126412 28.91950808 71.15141765 34.37560715 69.51953125 40.9296875 C66.69678675 47.83609791 60.71320072 55.5084113 54 59 C49.05520171 60.02680567 44.21150279 59.59035009 39.22265625 59.12890625 C35.26229285 58.80371766 33.2404547 59.58349393 30 62 C29.34 62 28.68 62 28 62 C28 62.66 28 63.32 28 64 C26.48792969 64.60714844 26.48792969 64.60714844 24.9453125 65.2265625 C21.00052045 66.92002381 17.46717181 69.0381146 13.875 71.375 C13.28074219 71.74882812 12.68648437 72.12265625 12.07421875 72.5078125 C8.24108608 74.97861766 5.2100312 77.73610921 2 81 C1.29617188 81.4228125 0.59234375 81.845625 -0.1328125 82.28125 C-3.56579798 84.38142936 -5.55580551 86.36491358 -6.63525391 90.33837891 C-7.66807624 95.83917284 -8.26808081 101.38162606 -8.73803711 106.95629883 C-9 109 -9 109 -10 111 C-10.17616125 113.08264194 -10.29843504 115.16994379 -10.39453125 117.2578125 C-10.46349609 118.52367187 -10.53246094 119.78953125 -10.60351562 121.09375 C-10.74506484 123.75759616 -10.86936372 126.42072615 -10.98632812 129.0859375 C-11.40388494 136.38763889 -11.98328952 141.8122991 -16 148 C-18.83621327 150.38839012 -20.45166375 150.93419965 -24.125 151.375 C-27 151 -27 151 -28.6484375 149.83203125 C-31.52583792 145.93173993 -30.63642237 140.58224103 -30 136 C-28.4501911 132.28045865 -26.68923506 128.84461753 -23 127 C-22.54790773 125.06676343 -22.54790773 125.06676343 -22.40234375 122.73828125 C-22.32306641 121.86623047 -22.24378906 120.99417969 -22.16210938 120.09570312 C-22.08798828 119.17724609 -22.01386719 118.25878906 -21.9375 117.3125 C-21.78174139 115.51677062 -21.62423093 113.7211922 -21.46484375 111.92578125 C-21.38991699 111.07709473 -21.31499023 110.2284082 -21.23779297 109.35400391 C-20.95389582 106.54359701 -20.52020555 103.77596411 -20 101 C-22.97 101.99 -22.97 101.99 -26 103 C-26 103.66 -26 104.32 -26 105 C-29.63423209 107.32590854 -32.77088331 107.16265833 -37 107 C-37 106.34 -37 105.68 -37 105 C-38.0725 104.773125 -39.145 104.54625 -40.25 104.3125 C-44.4373664 102.84692176 -45.47888412 101.51155427 -48 98 C-49.485 97.505 -49.485 97.505 -51 97 C-50.67 97.66 -50.34 98.32 -50 99 C-49.75578763 100.97073704 -49.5592983 102.94748389 -49.38671875 104.92578125 C-49.27263672 106.11494141 -49.15855469 107.30410156 -49.04101562 108.52929688 C-48.80652348 111.03875152 -48.58245433 113.54920332 -48.36914062 116.06054688 C-48.1922168 117.85008789 -48.1922168 117.85008789 -48.01171875 119.67578125 C-47.86416138 121.3141394 -47.86416138 121.3141394 -47.71362305 122.9855957 C-46.87688852 126.52003333 -45.35514394 128.28860083 -43 131 C-43 131.66 -43 132.32 -43 133 C-42.34 133 -41.68 133 -41 133 C-38.62711864 146.94067797 -38.62711864 146.94067797 -42 152 C-46.84159391 152.73854822 -49.85922537 152.6004099 -53.875 149.6875 C-60.79577057 142.68375161 -59.5521499 129.39536101 -60.125 120.1875 C-60.21136719 118.90423828 -60.29773438 117.62097656 -60.38671875 116.29882812 C-60.74347239 110.85408808 -61.04834435 105.45828258 -61 100 C-61.66 100 -62.32 100 -63 100 C-63.06316406 98.99839844 -63.12632812 97.99679687 -63.19140625 96.96484375 C-63.75487584 88.13856454 -63.75487584 88.13856454 -68.25 80.8125 C-70.08044758 79.2755407 -70.08044758 79.2755407 -72 78 C-72.58007812 77.59523438 -73.16015625 77.19046875 -73.7578125 76.7734375 C-75.16038312 75.83161472 -76.57887272 74.91358182 -78 74 C-78.33 73.34 -78.66 72.68 -79 72 C-81.43397969 70.89746297 -81.43397969 70.89746297 -84.3125 69.9375 C-85.27800781 69.59589844 -86.24351562 69.25429688 -87.23828125 68.90234375 C-97.20558865 65.64569876 -107.78755717 65.95060495 -117.6328125 69.5390625 C-121.88436891 70.36692332 -124.53814667 68.28705062 -128.0859375 66.08203125 C-146.48761762 53.38443488 -146.48761762 53.38443488 -150 43 C-150.99416186 37.2206057 -151.61053708 31.62622755 -148.4453125 26.46484375 C-142.36606035 20.13721748 -134.86358398 16.69856744 -126.6875 13.9375 C-125.93549316 13.67855957 -125.18348633 13.41961914 -124.40869141 13.15283203 C-118.97706048 11.2962146 -113.53229076 9.53395335 -108 8 C-106.83984375 7.67128906 -105.6796875 7.34257812 -104.484375 7.00390625 C-93.25859808 3.87373827 -82.67863755 1.84506905 -71 2 C-70.92546352 7.55010083 -70.87121601 13.09990586 -70.83520508 18.65039062 C-70.82018207 20.53585897 -70.79975769 22.42129275 -70.77368164 24.30664062 C-70.73701137 27.0274309 -70.72020854 29.74775641 -70.70703125 32.46875 C-70.69154739 33.30241089 -70.67606354 34.13607178 -70.66011047 34.99499512 C-70.65850768 40.65535787 -71.73858834 44.80423066 -74 50 C-72.96101563 50.18175781 -71.92203125 50.36351562 -70.8515625 50.55078125 C-69.44265382 50.80438481 -68.03380273 51.05830848 -66.625 51.3125 C-65.94566406 51.43044922 -65.26632812 51.54839844 -64.56640625 51.66992188 C-60.62121235 52.38890581 -56.89377239 53.32971383 -53.08203125 54.58203125 C-48.00168464 56.14682875 -43.35440642 56.46144593 -38.0625 56.375 C-37.16370117 56.36702393 -36.26490234 56.35904785 -35.33886719 56.35083008 C-23.70111212 56.10931099 -12.07901927 54.71633087 -1.14941406 50.59692383 C1.30869634 49.9142705 3.46076837 49.90090668 6 50 C5.57122559 49.13109131 5.14245117 48.26218262 4.70068359 47.36694336 C-0.13495807 36.92353797 -0.7504806 27.93908985 -0.375 16.5625 C-0.34480346 14.94471219 -0.31744507 13.32686884 -0.29296875 11.70898438 C-0.2278719 7.80457766 -0.12491944 3.90293167 0 0 Z " fill="#503F61" transform="translate(380,315)"/>
<path d="M0 0 C0.70914551 0.00016113 1.41829102 0.00032227 2.14892578 0.00048828 C8.89973445 0.14627751 15.45385065 1.45385065 20.375 6.375 C20.51997985 8.95564129 20.56177545 11.42443884 20.5 14 C20.49097656 14.70640625 20.48195313 15.4128125 20.47265625 16.140625 C20.44907603 17.88556098 20.41320461 19.63032295 20.375 21.375 C21.11492187 21.66503906 21.85484375 21.95507812 22.6171875 22.25390625 C24.9577227 23.20537028 27.23069976 24.20454753 29.5 25.3125 C30.16257812 25.63089844 30.82515625 25.94929688 31.5078125 26.27734375 C33.60602366 27.51081098 34.93288601 28.39812033 36.375 30.375 C37.21240961 35.9577307 37.48631173 42.24960887 34.6875 47.3125 C31.4767476 51.56457751 28.25526964 55.69895507 24.375 59.375 C25.98375 59.436875 25.98375 59.436875 27.625 59.5 C32.85843993 60.11679828 37.05367714 62.5282768 41.640625 65 C43.94541215 66.15897868 45.85994763 66.89594241 48.375 67.375 C48.375 68.035 48.375 68.695 48.375 69.375 C49.09945312 69.61863281 49.82390625 69.86226563 50.5703125 70.11328125 C55.66449772 72.4049551 59.35628752 76.57078709 63.375 80.375 C64.02082031 80.95636719 64.66664063 81.53773437 65.33203125 82.13671875 C76.6371246 92.67623016 83.84656844 108.76445432 84.54760742 124.16748047 C84.61788894 127.84400354 84.61105245 131.51885624 84.58081055 135.19580078 C84.56248617 137.5017398 84.56030192 139.80727672 84.56054688 142.11328125 C84.55563231 143.59896176 84.54980426 145.08463959 84.54296875 146.5703125 C84.54185593 147.24965851 84.5407431 147.92900452 84.53959656 148.62893677 C84.49698243 152.9781338 84.07066586 157.09413945 83.375 161.375 C82.385 161.375 81.395 161.375 80.375 161.375 C76.39191457 153.19057788 72.5958985 145.2426163 70.375 136.375 C70.045 135.17875 69.715 133.9825 69.375 132.75 C68.1854174 127.95234457 67.39243261 123.06273391 66.60351562 118.18505859 C65.55895236 112.19340867 64.28265645 107.74851264 59.25 104.125 C55.84835558 102.38495548 52.47707473 101.65982977 48.75390625 100.91015625 C40.42483809 99.03645783 34.73640358 95.34102064 28.3046875 89.8203125 C21.18033812 83.87385555 13.14943946 77.55734387 4.375 74.375 C3.72917969 74.12105469 3.08335937 73.86710937 2.41796875 73.60546875 C-2.39318839 72.36474363 -5.45115916 73.54570755 -9.69189453 76.02514648 C-12.31841551 77.65720944 -14.90791034 79.34368359 -17.49804688 81.03271484 C-21.17673124 83.35427208 -24.99637238 85.41515586 -28.8125 87.5 C-30.33497582 88.34313561 -31.85711877 89.18687262 -33.37890625 90.03125 C-35.96300899 91.46141621 -38.55387712 92.87740309 -41.15234375 94.28125 C-50.35000628 99.38461887 -57.93567837 105.22468363 -61.625 115.375 C-62.00320746 116.95757024 -62.37802724 118.54095274 -62.75 120.125 C-64.0290488 124.79568383 -66.47197833 127.92717409 -69.625 131.5 C-77.31799165 140.26413294 -78.25207873 147.87476539 -79.625 159.375 C-82.595 158.715 -85.565 158.055 -88.625 157.375 C-89.62708895 149.78193575 -89.87589916 142.27993138 -89.9375 134.625 C-89.96650391 133.4390625 -89.99550781 132.253125 -90.02539062 131.03125 C-90.08601565 122.48778559 -88.57820962 115.37383417 -85.625 107.375 C-85.33471924 106.57586182 -85.04443848 105.77672363 -84.74536133 104.95336914 C-78.05008954 87.40706401 -62.47872049 68.17943858 -45.45703125 60.0546875 C-43.10804415 59.18320828 -41.10260261 59.06529967 -38.625 59.375 C-38.91375 58.82972656 -39.2025 58.28445312 -39.5 57.72265625 C-42.1183694 52.40409341 -43.95520527 47.34294797 -42.625 41.375 C-41.62893955 40.37107591 -40.62887342 39.37111152 -39.625 38.375 C-39.05482192 36.33399762 -39.05482192 36.33399762 -38.9375 34.1875 C-38.834375 32.929375 -38.73125 31.67125 -38.625 30.375 C-39.945 29.385 -41.265 28.395 -42.625 27.375 C-42.13 25.89 -42.13 25.89 -41.625 24.375 C-38.18630888 22.97971957 -34.68669325 21.94208977 -31.140625 20.8515625 C-26.19855179 18.77589175 -23.59880945 15.90063481 -20.75 11.4375 C-15.39411238 3.71872078 -9.40145158 -0.01976479 0 0 Z " fill="#524241" transform="translate(339.625,21.625)"/>
<path d="M0 0 C3.79028559 0.9475714 7.16381924 1.99353905 10.625 3.8125 C24.7349243 11.1277423 38.01383564 15.08339105 53.6875 10.87109375 C58.26964946 9.14504759 62.58893277 6.81873473 66.92578125 4.55859375 C70 3 70 3 73 2 C73 11.57 73 21.14 73 31 C75.64 31.33 78.28 31.66 81 32 C77.98968256 32.93423645 77.13349732 33.04449911 74 32 C74.01963221 36.76562227 74.07197909 41.52945192 74.15258789 46.29443359 C74.17555576 47.90989371 74.19011297 49.52549907 74.19555664 51.14111328 C74.23331082 60.5099588 74.65524611 68.15694706 78.93481445 76.72363281 C80 79 80 79 80 82 C55.82627546 88.75214907 33.38565162 92.30577944 9.02050781 84.63378906 C6.03026242 83.69581455 3.01588086 82.85144921 0 82 C0.32145996 80.87658203 0.64291992 79.75316406 0.97412109 78.59570312 C2.15157683 73.86719657 2.34678703 69.32407996 2.4140625 64.46875 C2.43342865 63.59222778 2.4527948 62.71570557 2.4727478 61.81262207 C2.53202621 59.04184378 2.57871987 56.27102275 2.625 53.5 C2.66322751 51.60935793 2.70228195 49.71873239 2.7421875 47.828125 C2.8376845 43.2188859 2.92190406 38.60956543 3 34 C1.68 33.67 0.36 33.34 -1 33 C0.32 33 1.64 33 3 33 C2.88519969 30.14509764 2.75847036 27.2915412 2.625 24.4375 C2.57859375 23.23770508 2.57859375 23.23770508 2.53125 22.01367188 C2.28807489 17.04884674 1.45351456 12.78253176 0 8 C-0.21794764 5.28437244 -0.0958736 2.73239755 0 0 Z " fill="#CEA392" transform="translate(306,283)"/>
<path d="M0 0 C225.39 0 450.78 0 683 0 C683 1.65 683 3.3 683 5 C457.61 5 232.22 5 0 5 C0 3.35 0 1.7 0 0 Z " fill="#323232" transform="translate(0,0)"/>
<path d="M0 0 C225.39 0 450.78 0 683 0 C683 1.32 683 2.64 683 4 C457.61 4 232.22 4 0 4 C0 2.68 0 1.36 0 0 Z " fill="#3F4043" transform="translate(0,593)"/>
<path d="M0 0 C57.42 0 114.84 0 174 0 C174.99 1.98 174.99 1.98 176 4 C172.49878755 5.16707082 169.76770181 5.12293099 166.07148743 5.12025452 C165.00796068 5.12153615 165.00796068 5.12153615 163.92294854 5.12284368 C161.54146167 5.12449395 159.16004486 5.11898451 156.77856445 5.11352539 C155.07371014 5.1132434 153.36885571 5.11340149 151.66400146 5.1139679 C147.03001879 5.11425539 142.39606188 5.10836641 137.7620852 5.10139394 C132.92140346 5.09515241 128.08072116 5.09455597 123.24003601 5.09336853 C114.07093627 5.09025758 104.90184843 5.08204736 95.73275393 5.07201904 C85.29515784 5.06085059 74.85756119 5.0553456 64.41996062 5.05032361 C42.94663377 5.03986456 21.47331763 5.02226967 0 5 C0 3.35 0 1.7 0 0 Z " fill="#323232" transform="translate(0,0)"/>
<path d="M0 0 C1.66666667 1.66666667 3.33333333 3.33333333 5 5 C5.7115625 5.62519531 6.423125 6.25039062 7.15625 6.89453125 C9.55187517 9.63021339 10.37691266 12.23855948 11.5 15.6875 C12.88210594 19.79142192 14.26799067 23.77502233 16.125 27.6875 C19.07944755 34.11282292 21.25596465 40.88418278 21 48 C17.5379936 45.69199574 17.35373898 44.82757628 16.125 41 C14.80483708 37.10551937 13.32504778 33.55655927 11.375 29.9375 C8.85151879 25.10018063 7.76632764 20.37573122 7 15 C6.34 15 5.68 15 5 15 C6.49573542 28.65842603 10.30659558 38.04512265 17.27514648 49.66870117 C26.39594058 64.93910872 26.39594058 64.93910872 27 74 C23.83243383 71.25211137 21.9075761 67.76108054 19.8125 64.1875 C19.42030273 63.52314941 19.02810547 62.85879883 18.62402344 62.17431641 C17.81112647 60.79409191 17.0004344 59.41256657 16.19189453 58.02978516 C15.07663963 56.13051657 13.9449497 54.24216069 12.80859375 52.35546875 C2.35957258 34.8182227 -0.36954246 19.99635302 0 0 Z " fill="#564847" transform="translate(249,224)"/>
<path d="M0 0 C0.66 0 1.32 0 2 0 C2.94920363 22.88635419 -5.03378032 40.22047821 -17 59 C-17.77938566 60.2391183 -18.55811797 61.47864801 -19.3359375 62.71875 C-20.87518746 65.15641933 -22.4265076 67.58435673 -24 70 C-25.9649778 64.67188711 -23.2054777 59.98056257 -21.01025391 55.06738281 C-18.63812756 50.21306529 -15.82508839 45.58454539 -13.01074219 40.97631836 C-7.94574221 32.59130522 -4.63423398 24.83062666 -4 15 C-4.66 15 -5.32 15 -6 15 C-6.10570312 15.85335937 -6.21140625 16.70671875 -6.3203125 17.5859375 C-7.05466103 21.27456172 -8.27507854 24.22616188 -9.875 27.625 C-10.38804687 28.73101562 -10.90109375 29.83703125 -11.4296875 30.9765625 C-12.77480691 33.56641927 -14.16313796 35.74516936 -16 38 C-15.26512358 28.44660652 -11.89982645 19.68597708 -8 11 C-7.71125 10.113125 -7.4225 9.22625 -7.125 8.3125 C-5.66820362 5.31797411 -3.64364525 3.9657875 -1 2 C-0.67 1.34 -0.34 0.68 0 0 Z " fill="#5B4C4D" transform="translate(425,232)"/>
<path d="M0 0 C21.45 0 42.9 0 65 0 C65 1.65 65 3.3 65 5 C43.55 5 22.1 5 0 5 C0 3.35 0 1.7 0 0 Z " fill="#0F192F" transform="translate(0,0)"/>
<path d="M0 0 C18.15 0 36.3 0 55 0 C55.66 1.32 56.32 2.64 57 4 C54.08240029 4.97253324 52.17226995 5.13726699 49.13305664 5.16113281 C47.65120628 5.17554413 47.65120628 5.17554413 46.13941956 5.19024658 C45.07376266 5.19449646 44.00810577 5.19874634 42.91015625 5.203125 C41.81408554 5.20882507 40.71801483 5.21452515 39.58872986 5.22039795 C37.2695309 5.2298471 34.95031852 5.23638159 32.63110352 5.24023438 C29.08000378 5.2499521 25.5294798 5.28098184 21.97851562 5.3125 C19.72656594 5.31902887 17.47461212 5.3242798 15.22265625 5.328125 C13.62720726 5.3466452 13.62720726 5.3466452 11.99952698 5.36553955 C11.00847458 5.36253845 10.01742218 5.35953735 8.99633789 5.35644531 C8.12602432 5.36009094 7.25571075 5.36373657 6.35902405 5.36749268 C3.48880692 4.9203655 2.09201307 3.98664357 0 2 C0 1.34 0 0.68 0 0 Z " fill="#2E2E2E" transform="translate(119,0)"/>
<path d="M0 0 C0.33 0 0.66 0 1 0 C1.20753906 0.88300781 1.41507813 1.76601562 1.62890625 2.67578125 C3.53090062 10.08480534 5.76289077 15.83952223 10.12890625 22.21484375 C15.03349808 29.51541572 20.4735923 38.18499553 22 47 C21.67 47.99 21.34 48.98 21 50 C7.90093196 28.77921997 7.90093196 28.77921997 2 18 C1.52175781 17.15953125 1.04351562 16.3190625 0.55078125 15.453125 C-2.08717733 10.37001545 -2.19734508 7.15957484 -0.578125 1.65234375 C-0.38734375 1.10707031 -0.1965625 0.56179687 0 0 Z " fill="#584D50" transform="translate(254,248)"/>
<path d="M0 0 C0.66 0 1.32 0 2 0 C2.13535156 0.55945313 2.27070313 1.11890625 2.41015625 1.6953125 C4.0579185 7.83248686 6.528061 13.31279032 9.43603516 18.93457031 C11.64156629 23.21332435 13.45204232 27.4471833 15 32 C15.66 31.67 16.32 31.34 17 31 C17 32.65 17 34.3 17 36 C15.68 36 14.36 36 13 36 C11.43359375 34.2421875 11.43359375 34.2421875 10 32 C9.51660156 31.38382812 9.03320312 30.76765625 8.53515625 30.1328125 C2.05423858 21.29676029 -0.75131546 10.89407417 0 0 Z " fill="#BEC2D4" transform="translate(254,239)"/>
<path d="M0 0 C10.56 0 21.12 0 32 0 C32 1.65 32 3.3 32 5 C21.44 5 10.88 5 0 5 C0 3.35 0 1.7 0 0 Z " fill="#323232" transform="translate(0,0)"/>
<path d="M0 0 C0.66 0 1.32 0 2 0 C2 3.3 2 6.6 2 10 C1.67 10 1.34 10 1 10 C1 8.35 1 6.7 1 5 C-0.98 6.65 -2.96 8.3 -5 10 C-4.34 10.33 -3.68 10.66 -3 11 C-3 14.3 -3 17.6 -3 21 C-3.33 21 -3.66 21 -4 21 C-4 19.02 -4 17.04 -4 15 C-4.66 15 -5.32 15 -6 15 C-6.10570312 15.85335937 -6.21140625 16.70671875 -6.3203125 17.5859375 C-7.05466103 21.27456172 -8.27507854 24.22616188 -9.875 27.625 C-10.38804687 28.73101562 -10.90109375 29.83703125 -11.4296875 30.9765625 C-12.77480691 33.56641927 -14.16313796 35.74516936 -16 38 C-15.26512358 28.44660652 -11.89982645 19.68597708 -8 11 C-7.71125 10.113125 -7.4225 9.22625 -7.125 8.3125 C-5.66820362 5.31797411 -3.64364525 3.9657875 -1 2 C-0.67 1.34 -0.34 0.68 0 0 Z " fill="#5F555B" transform="translate(425,232)"/>
<path d="M0 0 C3.41621788 -0.14539953 6.83163991 -0.23409725 10.25 -0.3125 C11.21808594 -0.35439453 12.18617187 -0.39628906 13.18359375 -0.43945312 C20.4019949 -0.56390832 20.4019949 -0.56390832 23.671875 2.51953125 C24.32929687 3.74736328 24.32929687 3.74736328 25 5 C21.20834926 5.0289337 17.41672673 5.04677601 13.625 5.0625 C12.54476562 5.07087891 11.46453125 5.07925781 10.3515625 5.08789062 C8.8046875 5.09272461 8.8046875 5.09272461 7.2265625 5.09765625 C6.27346191 5.10289307 5.32036133 5.10812988 4.33837891 5.11352539 C2 5 2 5 0 4 C0 2.68 0 1.36 0 0 Z " fill="#272727" transform="translate(98,0)"/>
<path d="M0 0 C2.95064148 -0.2208564 5.68368231 -0.28060989 8.625 -0.1875 C9.42679688 -0.17396484 10.22859375 -0.16042969 11.0546875 -0.14648438 C13.03674378 -0.11109051 15.01845551 -0.05728234 17 0 C17.66 1.32 18.32 2.64 19 4 C15.82212459 5.0592918 13.57411057 5.11458939 10.23828125 5.09765625 C9.12001953 5.09443359 8.00175781 5.09121094 6.84960938 5.08789062 C5.68236328 5.07951172 4.51511719 5.07113281 3.3125 5.0625 C2.13365234 5.05798828 0.95480469 5.05347656 -0.25976562 5.04882812 C-3.17322789 5.03703273 -6.08658863 5.0205727 -9 5 C-8.67 4.34 -8.34 3.68 -8 3 C-6.576875 3.0928125 -6.576875 3.0928125 -5.125 3.1875 C-3.578125 3.0946875 -3.578125 3.0946875 -2 3 C-1.34 2.01 -0.68 1.02 0 0 Z " fill="#202020" transform="translate(157,0)"/>
<path d="M0 0 C0.52935837 9.8078342 -0.57260163 17.78886689 -4 27 C-6.93087534 22.96190509 -5.79254053 18.87674643 -5.125 14.25 C-5.02058594 13.45722656 -4.91617187 12.66445312 -4.80859375 11.84765625 C-4.5500661 9.89694759 -4.27649734 7.94824281 -4 6 C-4.99 5.67 -5.98 5.34 -7 5 C-2.25 0 -2.25 0 0 0 Z " fill="#554547" transform="translate(426,237)"/>
<path d="M0 0 C0.66 0 1.32 0 2 0 C2.77872362 9.34468349 -0.06827253 17.67666491 -6 25 C-6.33 24.34 -6.66 23.68 -7 23 C-7.66 23 -8.32 23 -9 23 C-7.1431406 18.31486863 -5.1829188 13.67610386 -3.21875 9.03515625 C-2.02212105 6.05508992 -0.98380378 3.05616823 0 0 Z " fill="#C9CFE2" transform="translate(419,247)"/>
<path d="M0 0 C3.84079267 3.23562576 4.95780926 6.13280665 6.25 10.9375 C6.75273437 12.74541016 6.75273437 12.74541016 7.265625 14.58984375 C7.90149312 17.54257179 8.15934231 20.00095013 8 23 C4.46520396 20.6434693 4.22750868 19.49519854 2.9375 15.5625 C1.84753324 12.27509023 0.93607665 9.90411498 -1 7 C-0.625 3.3125 -0.625 3.3125 0 0 Z " fill="#564646" transform="translate(262,249)"/>
<path d="M0 0 C0.35729936 1.32711192 0.68325425 2.66262906 1 4 C1.268125 4.9075 1.53625 5.815 1.8125 6.75 C2.07386843 11.28038609 0.26323801 14.17289367 -2 18 C-2.99 18 -3.98 18 -5 18 C-5.99 18.33 -6.98 18.66 -8 19 C-6.21127475 14.42419121 -4.17969187 9.98271532 -2.12109375 5.5234375 C-0.93154689 2.95494272 -0.93154689 2.95494272 0 0 Z " fill="#5B4F51" transform="translate(420,256)"/>
<path d="M0 0 C0.33 0.66 0.66 1.32 1 2 C0.67 2.99 0.34 3.98 0 5 C0.66 5 1.32 5 2 5 C0.35821735 9.77609498 -2.26546702 13.79382904 -5 18 C-6.66201898 13.94507418 -5.20927166 11.22066185 -3.625 7.3125 C-3.16351563 6.15363281 -2.70203125 4.99476563 -2.2265625 3.80078125 C-1 1 -1 1 0 0 Z " fill="#6B656A" transform="translate(406,284)"/>
<path d="M0 0 C0.66 0 1.32 0 2 0 C2.21755666 5.4389165 2.10428384 9.87080814 0 15 C-0.66 14.01 -1.32 13.02 -2 12 C-2.99 12.66 -3.98 13.32 -5 14 C-3.46527032 9.27775484 -1.76054874 4.64144669 0 0 Z " fill="#BDC1D1" transform="translate(419,247)"/>
<path d="M0 0 C0.15886288 8.26086957 0.15886288 8.26086957 -1 11 C-1.99 11.33 -2.98 11.66 -4 12 C-4 10.02 -4 8.04 -4 6 C-4.99 5.67 -5.98 5.34 -7 5 C-2.25 0 -2.25 0 0 0 Z " fill="#503F3E" transform="translate(426,237)"/>
<path d="M0 0 C2.48291009 3.01802003 3.91340355 5.89683437 5.25 9.5625 C5.60578125 10.51253906 5.9615625 11.46257812 6.328125 12.44140625 C7 15 7 15 6 18 C1.74863939 11.82540483 -0.84292075 7.58628679 0 0 Z " fill="#6F636E" transform="translate(269,280)"/>
<path d="M0 0 C3.63 0 7.26 0 11 0 C10.34 1.32 9.68 2.64 9 4 C8.071875 3.979375 7.14375 3.95875 6.1875 3.9375 C2.97713989 3.84230396 2.97713989 3.84230396 0 5 C0 3.35 0 1.7 0 0 Z " fill="#121313" transform="translate(146,0)"/>
<path d="M0 0 C0.33 0.66 0.66 1.32 1 2 C1.66 2 2.32 2 3 2 C3.6708712 3.6232687 4.33657029 5.24867578 5 6.875 C5.556875 8.23238281 5.556875 8.23238281 6.125 9.6171875 C7 12 7 12 7 14 C6.34 14 5.68 14 5 14 C4.67 14.99 4.34 15.98 4 17 C3.32635339 14.91891315 2.66133202 12.8350329 2 10.75 C1.62875 9.58984375 1.2575 8.4296875 0.875 7.234375 C0 4 0 4 0 0 Z " fill="#CCCBD5" transform="translate(263,244)"/>
<path d="M0 0 C2.75 -0.3125 2.75 -0.3125 6 0 C8.375 2.5 8.375 2.5 10 5 C6.37 5 2.74 5 -1 5 C-0.67 3.35 -0.34 1.7 0 0 Z " fill="#313131" transform="translate(113,0)"/>
<path d="M0 0 C0 3.3 0 6.6 0 10 C-0.33 10 -0.66 10 -1 10 C-1 8.35 -1 6.7 -1 5 C-3.31 6.65 -5.62 8.3 -8 10 C-6.83833955 5.74057835 -5.25202969 0 0 0 Z " fill="#63524F" transform="translate(427,232)"/>
<path d="M0 0 C3.63 0 7.26 0 11 0 C11 1.65 11 3.3 11 5 C8.69 5 6.38 5 4 5 C4.99 3.68 5.98 2.36 7 1 C5.02 1.33 3.04 1.66 1 2 C0.67 1.34 0.34 0.68 0 0 Z " fill="#2E2E2E" transform="translate(135,0)"/>
<path d="M0 0 C3.3 0 6.6 0 10 0 C9.34 1.32 8.68 2.64 8 4 C6.02 4 4.04 4 2 4 C1.34 2.68 0.68 1.36 0 0 Z " fill="#151616" transform="translate(119,0)"/>
<path d="M0 0 C1.9507829 2.92617435 2.71513462 5.02044581 3.625 8.375 C3.88539063 9.31085938 4.14578125 10.24671875 4.4140625 11.2109375 C4.97925133 13.90123635 5.10954217 16.26144571 5 19 C2 17 2 17 1.26953125 14.1015625 C1.11871094 12.95429688 0.96789062 11.80703125 0.8125 10.625 C0.65394531 9.48289062 0.49539063 8.34078125 0.33203125 7.1640625 C0 4 0 4 0 0 Z " fill="#817A82" transform="translate(265,253)"/>
<path d="M0 0 C0.33 0.66 0.66 1.32 1 2 C0.67 2.99 0.34 3.98 0 5 C0.99 5 1.98 5 3 5 C3 8.3 3 11.6 3 15 C2.67 15 2.34 15 2 15 C2 13.02 2 11.04 2 9 C0.35 9.33 -1.3 9.66 -3 10 C-2.69201674 8.51988629 -2.378482 7.04092675 -2.0625 5.5625 C-1.88847656 4.73878906 -1.71445312 3.91507813 -1.53515625 3.06640625 C-1 1 -1 1 0 0 Z " fill="#776563" transform="translate(419,238)"/>
<path d="M0 0 C0.99 0 1.98 0 3 0 C3.05399736 1.45792884 3.09279177 2.91642712 3.125 4.375 C3.14820313 5.18710938 3.17140625 5.99921875 3.1953125 6.8359375 C3 9 3 9 1 11 C0 10 0 10 -0.09765625 7.71484375 C-0.08605469 6.79832031 -0.07445312 5.88179687 -0.0625 4.9375 C-0.05347656 4.01839844 -0.04445312 3.09929687 -0.03515625 2.15234375 C-0.02355469 1.44207031 -0.01195312 0.73179687 0 0 Z " fill="#4B3E3F" transform="translate(250,238)"/>
<path d="M0 0 C0.99 0 1.98 0 3 0 C3.33 1.65 3.66 3.3 4 5 C-0.29 5 -4.58 5 -9 5 C-8.67 4.34 -8.34 3.68 -8 3 C-6.576875 3.0928125 -6.576875 3.0928125 -5.125 3.1875 C-3.578125 3.0946875 -3.578125 3.0946875 -2 3 C-1.34 2.01 -0.68 1.02 0 0 Z " fill="#303030" transform="translate(157,0)"/>
<path d="M0 0 C0.84181889 3.33130037 1.63570111 6.57559039 2 10 C1.01 11.485 1.01 11.485 0 13 C0 11.35 0 9.7 0 8 C-0.66 8 -1.32 8 -2 8 C-2.33 9.32 -2.66 10.64 -3 12 C-4 10 -4 10 -3.22265625 7.6171875 C-2.83980469 6.71226562 -2.45695312 5.80734375 -2.0625 4.875 C-1.68222656 3.96492188 -1.30195313 3.05484375 -0.91015625 2.1171875 C-0.60980469 1.41851562 -0.30945313 0.71984375 0 0 Z " fill="#766C72" transform="translate(420,256)"/>
<path d="M0 0 C0.66 0 1.32 0 2 0 C0.34908222 4.29238623 -2.73754566 6.8793915 -6 10 C-6.66 9.67 -7.32 9.34 -8 9 C-6.71520959 7.49410612 -5.42195918 5.99542625 -4.125 4.5 C-3.04605469 3.24703125 -3.04605469 3.24703125 -1.9453125 1.96875 C-1.30335938 1.3190625 -0.66140625 0.669375 0 0 Z " fill="#8C6CA2" transform="translate(244,396)"/>
<path d="M0 0 C1.32 0.99 2.64 1.98 4 3 C3.67 4.98 3.34 6.96 3 9 C2.01 8.34 1.02 7.68 0 7 C-0.1875 3.375 -0.1875 3.375 0 0 Z " fill="#CBC6CE" transform="translate(260,234)"/>
<path d="M0 0 C1.11375 0.1546875 1.11375 0.1546875 2.25 0.3125 C0.5625 2.8125 0.5625 2.8125 -1.75 5.3125 C-4.5 5.625 -4.5 5.625 -6.75 5.3125 C-3.42692308 0.38942308 -3.42692308 0.38942308 0 0 Z " fill="#161718" transform="translate(467.75,-0.3125)"/>
<path d="M0 0 C2.25 -0.3125 2.25 -0.3125 5 0 C7.3125 2.5 7.3125 2.5 9 5 C6.75 5.3125 6.75 5.3125 4 5 C1.6875 2.5 1.6875 2.5 0 0 Z " fill="#161718" transform="translate(385,0)"/>
<path d="M0 0 C0.33 0 0.66 0 1 0 C1.99 3.96 2.98 7.92 4 12 C3.34 11.67 2.68 11.34 2 11 C2 10.34 2 9.68 2 9 C1.34 9 0.68 9 0 9 C-0.33 9.66 -0.66 10.32 -1 11 C-1.33 9.68 -1.66 8.36 -2 7 C-1.67 7 -1.34 7 -1 7 C-0.67 4.69 -0.34 2.38 0 0 Z " fill="#716A70" transform="translate(254,248)"/>
<path d="M0 0 C3.3 0.33 6.6 0.66 10 1 C9.67 1.99 9.34 2.98 9 4 C3.48 4.368 3.48 4.368 1.125 2.5625 C0 1 0 1 0 0 Z " fill="#0A0B0B" transform="translate(132,0)"/>
<path d="M0 0 C0.66 0 1.32 0 2 0 C3.38938077 1.96147874 4.7260411 3.96166576 6 6 C5.67 6.66 5.34 7.32 5 8 C3.68 7.67 2.36 7.34 1 7 C0.67 4.69 0.34 2.38 0 0 Z " fill="#534749" transform="translate(254,257)"/>
<path d="M0 0 C0.66 0.33 1.32 0.66 2 1 C-0.64 3.97 -3.28 6.94 -6 10 C-6.66 9.67 -7.32 9.34 -8 9 C-5.36 6.03 -2.72 3.06 0 0 Z " fill="#695E65" transform="translate(281,90)"/>
<path d="M0 0 C0.33 0 0.66 0 1 0 C1.36923077 5.53846154 1.36923077 5.53846154 -0.5 7.875 C-1.2425 8.431875 -1.2425 8.431875 -2 9 C-3 6 -3 6 -1.5625 2.8125 C-1.046875 1.884375 -0.53125 0.95625 0 0 Z " fill="#5C4D4C" transform="translate(418,245)"/>
<path d="M0 0 C0.33 0.66 0.66 1.32 1 2 C0.67 2.99 0.34 3.98 0 5 C0.66 5 1.32 5 2 5 C1.34 6.32 0.68 7.64 0 9 C-0.66 9 -1.32 9 -2 9 C-1.125 1.125 -1.125 1.125 0 0 Z " fill="#695B5F" transform="translate(406,284)"/>
<path d="M0 0 C1.125 1.625 1.125 1.625 2 4 C1.125 7.25 1.125 7.25 0 10 C-1.125 8.375 -1.125 8.375 -2 6 C-1.125 2.75 -1.125 2.75 0 0 Z " fill="#705D5B" transform="translate(415,249)"/>
<path d="M0 0 C0.6875 1.75 0.6875 1.75 1 4 C-0.3125 6.25 -0.3125 6.25 -2 8 C-2.66 8 -3.32 8 -4 8 C-2.87548273 5.0280615 -1.77706209 2.66559313 0 0 Z " fill="#8C6BA0" transform="translate(230,412)"/>
<path d="M0 0 C0.33 0.66 0.66 1.32 1 2 C1.66 2 2.32 2 3 2 C3.33 3.65 3.66 5.3 4 7 C3.01 7 2.02 7 1 7 C0.67 4.69 0.34 2.38 0 0 Z " fill="#564244" transform="translate(266,278)"/>
<path d="M0 0 C0.66 0.33 1.32 0.66 2 1 C0.02 2.98 -1.96 4.96 -4 7 C-4.66 6.67 -5.32 6.34 -6 6 C-4.98545548 3.4636387 -4.3146444 2.20648539 -2 0.6875 C-1.34 0.460625 -0.68 0.23375 0 0 Z " fill="#D9BFBD" transform="translate(404,263)"/>
<path d="M0 0 C0.33 0.66 0.66 1.32 1 2 C1.66 2 2.32 2 3 2 C3.66 3.98 4.32 5.96 5 8 C3.68 7.67 2.36 7.34 1 7 C0.67 4.69 0.34 2.38 0 0 Z " fill="#D0C1C1" transform="translate(263,244)"/>
<path d="M0 0 C0.33 0.66 0.66 1.32 1 2 C-0.8125 5 -0.8125 5 -3 8 C-3.99 8 -4.98 8 -6 8 C-4.768606 4.30581799 -2.79208646 2.64890254 0 0 Z " fill="#B4B2C3" transform="translate(370,73)"/>
</svg>
